<svg xmlns="http://www.w3.org/2000/svg" width="21.008" height="21.007" viewBox="0 0 21.008 21.007"><defs><style>.a{fill:#919a9f;}</style></defs><path class="a" d="M10.5,21.008A10.5,10.5,0,0,1,3.076,3.076,10.5,10.5,0,0,1,17.931,17.931,10.435,10.435,0,0,1,10.5,21.008Zm0-19.695A9.191,9.191,0,1,0,19.695,10.5,9.2,9.2,0,0,0,10.5,1.313Z" transform="translate(0 0)"/><path class="a" d="M179.009,106.23a.6.6,0,0,1-.6-.6,5.65,5.65,0,0,1,1.666-4.021,3.536,3.536,0,0,0,1.042-2.517,1.889,1.889,0,0,0-1.887-1.887h-.137a1.889,1.889,0,0,0-1.887,1.887v.219a.6.6,0,0,1-1.2,0v-.219A3.094,3.094,0,0,1,179.091,96h.137a3.094,3.094,0,0,1,3.091,3.091,4.731,4.731,0,0,1-1.395,3.368,4.454,4.454,0,0,0-1.313,3.17A.6.6,0,0,1,179.009,106.23Z" transform="translate(-168.485 -91.689)"/><path class="a" d="M240.617,401.2a.6.6,0,0,1,0-1.2h0a.6.6,0,0,1,0,1.2Z" transform="translate(-230.112 -383.497)"/></svg>