<svg xmlns="http://www.w3.org/2000/svg" width="15" height="15" viewBox="0 0 15 15"><defs><style>.a{fill:#919a9f;}</style></defs><path class="a" d="M7.5,0a7.5,7.5,0,0,1,6.505,11.234l.966,3a.586.586,0,0,1-.737.737l-3-.966A7.5,7.5,0,1,1,7.5,0Zm0,13.828a6.31,6.31,0,0,0,3.35-.959.586.586,0,0,1,.49-.061l2.166.7-.7-2.166a.586.586,0,0,1,.061-.49A6.328,6.328,0,1,0,7.5,13.828ZM6.768,7.5A.732.732,0,1,0,7.5,6.768.732.732,0,0,0,6.768,7.5Zm-2.93,0a.732.732,0,1,0,.732-.732A.732.732,0,0,0,3.838,7.5ZM9.7,7.5a.732.732,0,1,0,.732-.732A.732.732,0,0,0,9.7,7.5Zm0,0"/></svg>