<svg xmlns="http://www.w3.org/2000/svg" width="38" height="18" viewBox="0 0 38 18"><defs><style>.a,.b{fill:#919a9f;}.a{fill-rule:evenodd;}</style></defs><g transform="translate(-11760 15361.597)"><g transform="translate(5579.594 -20341.594)"><g transform="translate(6206.406 4979.997)"><path class="a" d="M16,7a4,4,0,1,1-4-4A4,4,0,0,1,16,7ZM14,7a2,2,0,1,1-2-2A2,2,0,0,1,14,7Z" transform="translate(-6 -3)"/><path class="b" d="M16,15a1,1,0,0,0-1-1H9a1,1,0,0,0-1,1v6H6V15a3,3,0,0,1,3-3h6a3,3,0,0,1,3,3v6H16Z" transform="translate(-6 -3)"/></g><g transform="translate(6180.406 4979.997)"><path class="a" d="M16,7a4,4,0,1,1-4-4A4,4,0,0,1,16,7ZM14,7a2,2,0,1,1-2-2A2,2,0,0,1,14,7Z" transform="translate(-6 -3)"/><path class="b" d="M16,15a1,1,0,0,0-1-1H9a1,1,0,0,0-1,1v6H6V15a3,3,0,0,1,3-3h6a3,3,0,0,1,3,3v6H16Z" transform="translate(-6 -3)"/></g><g transform="translate(6193.406 4979.997)"><path class="a" d="M16,7a4,4,0,1,1-4-4A4,4,0,0,1,16,7ZM14,7a2,2,0,1,1-2-2A2,2,0,0,1,14,7Z" transform="translate(-6 -3)"/><path class="b" d="M16,15a1,1,0,0,0-1-1H9a1,1,0,0,0-1,1v6H6V15a3,3,0,0,1,3-3h6a3,3,0,0,1,3,3v6H16Z" transform="translate(-6 -3)"/></g></g></g></svg>