<svg xmlns="http://www.w3.org/2000/svg" width="15" height="15" viewBox="0 0 15 15"><defs><style>.a{fill:#919a9f;}</style></defs><path class="a" d="M7.5,0A7.5,7.5,0,1,0,15,7.5,7.5,7.5,0,0,0,7.5,0Zm0,14A6.5,6.5,0,1,1,14,7.5,6.507,6.507,0,0,1,7.5,14Z"/><g transform="translate(7 6.146)"><path class="a" d="M239.43,209.777a.5.5,0,0,0-.5.5v4.218a.5.5,0,1,0,1,0v-4.218A.5.5,0,0,0,239.43,209.777Z" transform="translate(-238.93 -209.777)"/></g><g transform="translate(6.5 3.636)"><path class="a" d="M222.867,124.122a1,1,0,1,0,1,1A1,1,0,0,0,222.867,124.122Z" transform="translate(-221.867 -124.122)"/></g></svg>