<svg xmlns="http://www.w3.org/2000/svg" width="24" height="24" viewBox="0 0 24 24"><defs><style>.a{fill:#919a9f;}</style></defs><path class="a" d="M20.485,3.515A12,12,0,0,0,3.515,20.485,12,12,0,0,0,20.485,3.515ZM12,22.594A10.594,10.594,0,1,1,22.594,12,10.606,10.606,0,0,1,12,22.594Z"/><g transform="translate(13.556 6.456)"><path class="a" d="M289.9,137.723a.7.7,0,0,0-.7.7v9.682a.7.7,0,1,0,1.406,0v-9.682A.7.7,0,0,0,289.9,137.723Z" transform="translate(-289.199 -137.723)"/></g><g transform="translate(9.037 6.456)"><path class="a" d="M193.5,137.723a.7.7,0,0,0-.7.7v9.682a.7.7,0,0,0,1.406,0v-9.682A.7.7,0,0,0,193.5,137.723Z" transform="translate(-192.799 -137.723)"/></g></svg>