<svg xmlns="http://www.w3.org/2000/svg" width="24" height="24" viewBox="0 0 24 24"><defs><style>.a,.b{fill:#919a9f;}.b{fill-rule:evenodd;}</style></defs><g transform="translate(-11683 15365)"><g transform="translate(11680 -15368)"><g transform="translate(3 3)"><circle class="a" cx="1.344" cy="1.344" r="1.344" transform="translate(15.456 13.656)"/><path class="b" d="M17.448,17.5c-.876,0-2.628.432-2.688,1.3a3.275,3.275,0,0,0,5.376,0C20.076,17.932,18.324,17.5,17.448,17.5Z" transform="translate(-0.648 -0.1)"/><path class="b" d="M21,12.708V6.924L12,3,3,6.924v5.892A12.256,12.256,0,0,0,12,24.6a11,11,0,0,0,1.92-.66A7.194,7.194,0,1,0,21,12.708ZM12.6,19.8a6.919,6.919,0,0,0,.276,1.944A7.9,7.9,0,0,1,12,22.1a9.849,9.849,0,0,1-6.6-9.288V8.5L12,5.616,18.6,8.5v4.212A7.2,7.2,0,0,0,12.6,19.8Zm7.2,4.8a4.8,4.8,0,1,1,4.8-4.8A4.8,4.8,0,0,1,19.8,24.6Z" transform="translate(-3 -3)"/></g></g></g></svg>