<svg xmlns="http://www.w3.org/2000/svg" width="78.393" height="20.941" viewBox="0 0 78.393 20.941"><defs><style>.a{fill:#2d2d30;}</style></defs><g transform="translate(-588 -712)"><g transform="translate(492.37 650.797)"><path class="a" d="M118.7,65.086l-.4,1.326h-.881l1.5-4.678h1.089l1.52,4.678h-.916l-.423-1.326Zm1.339-.645-.368-1.152c-.09-.285-.166-.6-.236-.875h-.014c-.069.271-.138.6-.222.875l-.361,1.152Z"/><path class="a" d="M122.8,63.032l.548,1.714a8.691,8.691,0,0,1,.229.847h.021c.063-.278.139-.542.229-.847l.542-1.714h.895l-1.291,3.38h-.84l-1.256-3.38Z"/><path class="a" d="M128.673,65.6a4.633,4.633,0,0,0,.055.812h-.77l-.062-.375h-.021a1.237,1.237,0,0,1-1,.451,1,1,0,0,1-1.062-1.006c0-.847.757-1.284,2.006-1.277v-.056c0-.222-.09-.59-.687-.59a1.787,1.787,0,0,0-.909.25l-.167-.555a2.431,2.431,0,0,1,1.222-.3,1.266,1.266,0,0,1,1.4,1.43Zm-.833-.84c-.6-.007-1.18.118-1.18.632a.447.447,0,0,0,.486.485.7.7,0,0,0,.673-.465.57.57,0,0,0,.021-.187Z"/><path class="a" d="M130.3,62.546a.483.483,0,1,1,.007,0Zm-.424,3.866v-3.38h.854v3.38Z"/><path class="a" d="M131.961,61.477h.854v4.935h-.854Z"/><path class="a" d="M136.673,65.6a4.633,4.633,0,0,0,.055.812h-.77l-.063-.375h-.02a1.235,1.235,0,0,1-1,.451,1,1,0,0,1-1.062-1.006c0-.847.757-1.284,2.006-1.277v-.056c0-.222-.09-.59-.687-.59a1.787,1.787,0,0,0-.909.25l-.167-.555a2.431,2.431,0,0,1,1.222-.3,1.267,1.267,0,0,1,1.4,1.43Zm-.833-.84c-.6-.007-1.18.118-1.18.632a.447.447,0,0,0,.486.485.7.7,0,0,0,.673-.465.57.57,0,0,0,.021-.187Z"/><path class="a" d="M137.88,61.477h.853V63.5h.014a1.225,1.225,0,0,1,1.083-.542c.826,0,1.415.687,1.409,1.715a1.619,1.619,0,0,1-1.534,1.818,1.164,1.164,0,0,1-1.069-.583h-.014l-.042.507h-.728c.014-.229.028-.6.028-.944Zm.853,3.54a.932.932,0,0,0,.021.2.78.78,0,0,0,.756.6c.535,0,.861-.423.861-1.111,0-.6-.284-1.082-.854-1.082a.792.792,0,0,0-.756.624,1.017,1.017,0,0,0-.028.222Z"/><path class="a" d="M142.244,61.477h.853v4.935h-.853Z"/><path class="a" d="M144.936,64.961a.918.918,0,0,0,1.041.875,2.732,2.732,0,0,0,.937-.153l.125.583a3.033,3.033,0,0,1-1.18.215,1.6,1.6,0,0,1-1.742-1.707,1.674,1.674,0,0,1,1.652-1.819,1.47,1.47,0,0,1,1.457,1.645,2.209,2.209,0,0,1-.027.361Zm1.485-.6a.726.726,0,0,0-.7-.826.836.836,0,0,0-.784.826Z"/><path class="a" d="M151.438,66.488a1.634,1.634,0,0,1-1.694-1.742,1.669,1.669,0,0,1,1.749-1.791,1.622,1.622,0,0,1,1.68,1.736,1.673,1.673,0,0,1-1.728,1.8Zm.028-.618c.485,0,.825-.471.825-1.159,0-.527-.236-1.138-.818-1.138-.6,0-.848.59-.848,1.152,0,.653.327,1.145.834,1.145Z"/><path class="a" d="M154.178,64.038c0-.389-.014-.715-.028-1.006h.743l.041.506h.021a1.244,1.244,0,0,1,1.083-.583c.59,0,1.2.382,1.2,1.451v2.006h-.854V64.5c0-.486-.181-.854-.646-.854a.717.717,0,0,0-.666.5.818.818,0,0,0-.041.271v1.992h-.854Z"/><path class="a" d="M161.172,62.164v.868h.812v.638h-.812v1.486c0,.416.111.624.437.624a1.1,1.1,0,0,0,.333-.035l.014.646a1.891,1.891,0,0,1-.618.09.975.975,0,0,1-.735-.278,1.326,1.326,0,0,1-.271-.95V63.67h-.479v-.638h.479V62.4Z"/><path class="a" d="M162.934,61.477h.854V63.49h.014a1.121,1.121,0,0,1,.423-.382,1.208,1.208,0,0,1,.59-.153c.576,0,1.18.382,1.18,1.465v1.992h-.854v-1.9c0-.486-.18-.861-.652-.861a.712.712,0,0,0-.666.479.765.765,0,0,0-.035.257v2.027h-.854Z"/><path class="a" d="M167.812,64.961a.918.918,0,0,0,1.041.875,2.731,2.731,0,0,0,.937-.153l.125.583a3.033,3.033,0,0,1-1.18.215,1.6,1.6,0,0,1-1.742-1.707,1.674,1.674,0,0,1,1.652-1.819A1.47,1.47,0,0,1,170.1,64.6a2.208,2.208,0,0,1-.027.361Zm1.485-.6a.726.726,0,0,0-.7-.826.836.836,0,0,0-.784.826Z"/><path class="a" d="M108.083,70.949a4.162,4.162,0,0,1,1.983-3.494,4.26,4.26,0,0,0-3.359-1.816c-1.413-.149-2.784.846-3.5.846-.734,0-1.845-.831-3.038-.807a4.473,4.473,0,0,0-3.765,2.3c-1.627,2.818-.413,6.959,1.146,9.238.78,1.115,1.692,2.361,2.885,2.317,1.167-.049,1.6-.744,3.012-.744s1.806.744,3.023.716c1.252-.021,2.04-1.121,2.793-2.247a9.184,9.184,0,0,0,1.279-2.6,4.021,4.021,0,0,1-2.457-3.7"/><path class="a" d="M105.784,64.14a4.094,4.094,0,0,0,.937-2.937,4.167,4.167,0,0,0-2.7,1.4,3.9,3.9,0,0,0-.964,2.829,3.454,3.454,0,0,0,2.725-1.289"/><path class="a" d="M124.954,79.345h-1.626l-.892-2.8h-3.095l-.85,2.8h-1.583l3.07-9.532h1.893Zm-2.785-3.976-.805-2.489q-.13-.379-.482-1.794h-.028q-.142.607-.453,1.794l-.792,2.489Z"/><path class="a" d="M132.845,75.823A3.9,3.9,0,0,1,131.9,78.6a2.77,2.77,0,0,1-2.106.9,2.11,2.11,0,0,1-1.952-.975h-.027v3.62h-1.529v-7.41q0-1.1-.056-2.263h1.343l.085,1.09h.029a2.716,2.716,0,0,1,4.348-.269,3.79,3.79,0,0,1,.813,2.531m-1.556.056a2.84,2.84,0,0,0-.452-1.655,1.565,1.565,0,0,0-1.329-.679,1.589,1.589,0,0,0-1.025.375,1.745,1.745,0,0,0-.6.984,1.953,1.953,0,0,0-.07.465v1.147a1.831,1.831,0,0,0,.458,1.265,1.523,1.523,0,0,0,1.195.516,1.557,1.557,0,0,0,1.343-.664,2.919,2.919,0,0,0,.481-1.754"/><path class="a" d="M140.749,75.823A3.9,3.9,0,0,1,139.8,78.6a2.768,2.768,0,0,1-2.106.9,2.108,2.108,0,0,1-1.951-.975h-.028v3.62h-1.527v-7.41c0-.735-.02-1.489-.056-2.263h1.342l.086,1.09h.029a2.715,2.715,0,0,1,4.347-.269,3.789,3.789,0,0,1,.812,2.531m-1.554.056a2.826,2.826,0,0,0-.454-1.655,1.562,1.562,0,0,0-1.328-.679,1.592,1.592,0,0,0-1.026.375,1.744,1.744,0,0,0-.6.984,1.962,1.962,0,0,0-.071.465v1.147a1.827,1.827,0,0,0,.459,1.265,1.521,1.521,0,0,0,1.2.516,1.561,1.561,0,0,0,1.343-.664,2.94,2.94,0,0,0,.481-1.754"/><path class="a" d="M149.588,76.671a2.539,2.539,0,0,1-.847,1.98,3.749,3.749,0,0,1-2.6.834,4.564,4.564,0,0,1-2.472-.593l.354-1.273a4.188,4.188,0,0,0,2.209.608,2.087,2.087,0,0,0,1.344-.389,1.274,1.274,0,0,0,.48-1.041,1.333,1.333,0,0,0-.4-.978,3.694,3.694,0,0,0-1.317-.737q-2.5-.935-2.5-2.733a2.414,2.414,0,0,1,.877-1.926,3.461,3.461,0,0,1,2.333-.752,4.628,4.628,0,0,1,2.163.453l-.381,1.244a3.771,3.771,0,0,0-1.825-.438,1.846,1.846,0,0,0-1.258.4,1.136,1.136,0,0,0-.381.863,1.16,1.16,0,0,0,.438.932,4.914,4.914,0,0,0,1.385.737,4.7,4.7,0,0,1,1.811,1.159,2.429,2.429,0,0,1,.579,1.654"/><path class="a" d="M154.637,73.617h-1.683v3.337q0,1.272.891,1.273a2.73,2.73,0,0,0,.678-.071l.042,1.16a3.443,3.443,0,0,1-1.187.169,1.828,1.828,0,0,1-1.414-.55,2.711,2.711,0,0,1-.509-1.853V73.617h-1V72.47h1V71.213l1.5-.454V72.47h1.683Z"/><path class="a" d="M162.231,75.851a3.766,3.766,0,0,1-.9,2.6,3.228,3.228,0,0,1-2.517,1.046,3.07,3.07,0,0,1-2.411-1,3.652,3.652,0,0,1-.9-2.53,3.732,3.732,0,0,1,.926-2.616,3.2,3.2,0,0,1,2.5-1.019,3.144,3.144,0,0,1,2.433,1,3.622,3.622,0,0,1,.877,2.517m-1.585.049a3.1,3.1,0,0,0-.41-1.63,1.506,1.506,0,0,0-1.371-.823,1.529,1.529,0,0,0-1.4.823,3.156,3.156,0,0,0-.409,1.66,3.1,3.1,0,0,0,.409,1.63,1.542,1.542,0,0,0,1.387.822,1.523,1.523,0,0,0,1.37-.836,3.1,3.1,0,0,0,.424-1.646"/><path class="a" d="M167.194,73.814a2.722,2.722,0,0,0-.48-.042,1.448,1.448,0,0,0-1.246.609,2.29,2.29,0,0,0-.381,1.357v3.606h-1.526l.013-4.708c0-.793-.02-1.514-.056-2.165h1.329l.056,1.316h.042a2.345,2.345,0,0,1,.764-1.089,1.849,1.849,0,0,1,1.1-.368,2.564,2.564,0,0,1,.381.027Z"/><path class="a" d="M174.023,75.582a3.673,3.673,0,0,1-.055.693h-4.581a2,2,0,0,0,.664,1.557,2.269,2.269,0,0,0,1.5.479,5.065,5.065,0,0,0,1.852-.325l.24,1.061a5.743,5.743,0,0,1-2.306.425,3.334,3.334,0,0,1-2.509-.941,3.476,3.476,0,0,1-.912-2.525,3.943,3.943,0,0,1,.849-2.588,2.926,2.926,0,0,1,2.4-1.1,2.565,2.565,0,0,1,2.251,1.1,3.723,3.723,0,0,1,.6,2.164m-1.456-.4a2.067,2.067,0,0,0-.3-1.173,1.334,1.334,0,0,0-1.217-.637,1.453,1.453,0,0,0-1.216.623,2.262,2.262,0,0,0-.451,1.187Z"/></g></g></svg>