<svg id="Layer_1" data-name="Layer 1" xmlns="http://www.w3.org/2000/svg" viewBox="0 0 20.93 13.34"><defs><style>.cls-1{fill:#919a9f;}</style></defs><title>eye</title><path class="cls-1" d="M20.8,9.29C20.61,9,16.16,3,10.47,3S.32,9,.13,9.29a.69.69,0,0,0,0,.81c.19.26,4.64,6.26,10.33,6.26s10.15-6,10.33-6.26A.69.69,0,0,0,20.8,9.29ZM10.47,15c-4.19,0-7.82-4-8.9-5.29,1.07-1.3,4.7-5.29,8.9-5.29s7.82,4,8.9,5.29C18.29,11,14.66,15,10.47,15Z" transform="translate(0 -3.03)"/><path class="cls-1" d="M10.46,5.56A4.14,4.14,0,1,0,14.6,9.7h0A4.15,4.15,0,0,0,10.46,5.56Zm0,6.9A2.76,2.76,0,1,1,13.22,9.7h0A2.76,2.76,0,0,1,10.46,12.46Z" transform="translate(0 -3.03)"/></svg>