<svg id="Layer_1" data-name="Layer 1" xmlns="http://www.w3.org/2000/svg" viewBox="0 0 20.93 19"><defs><style>.cls-1{fill:#919a9f;}.cls-2{fill:none;stroke:#919a9f;stroke-linecap:round;}</style></defs><title>eyeclosed</title><path class="cls-1" d="M20.8,9.36C20.61,9.1,16.16,3.1,10.47,3.1S.32,9.1.13,9.36a.69.69,0,0,0,0,.81c.19.26,4.64,6.26,10.33,6.26s10.15-6,10.33-6.26A.69.69,0,0,0,20.8,9.36Zm-10.33,5.7c-4.19,0-7.82-4-8.9-5.29,1.07-1.3,4.7-5.29,8.9-5.29s7.82,4,8.9,5.29c-1.08,1.3-4.7,5.29-8.9,5.29Z" transform="translate(0 -0.2)"/><path class="cls-1" d="M10.46,5.62A4.14,4.14,0,1,0,14.6,9.76h0A4.15,4.15,0,0,0,10.46,5.62Zm0,6.9a2.76,2.76,0,1,1,2.76-2.76h0A2.76,2.76,0,0,1,10.46,12.52Z" transform="translate(0 -0.2)"/><line class="cls-2" x1="3.41" y1="0.5" x2="17.41" y2="18.5"/></svg>