<svg xmlns="http://www.w3.org/2000/svg" width="14.271" height="15.463" viewBox="0 0 14.271 15.463"><defs><style>.a{fill:#919a9f;stroke:#919a9f;stroke-width:0.5px;}</style></defs><g transform="translate(-7366.917 20236.783)"><path class="a" d="M14.8,7.676a.324.324,0,0,1-.458,0L7.447.782.553,7.676a.324.324,0,0,1-.458-.458L7.218.095A.325.325,0,0,1,7.447,0a.321.321,0,0,1,.229.1L14.8,7.218A.324.324,0,0,1,14.8,7.676Z" transform="translate(7373.167 -20221.605) rotate(-90)"/><path class="a" d="M14.8,7.676a.324.324,0,0,1-.458,0L7.447.782.553,7.676a.324.324,0,0,1-.458-.458L7.218.095A.325.325,0,0,1,7.447,0a.321.321,0,0,1,.229.1L14.8,7.218A.324.324,0,0,1,14.8,7.676Z" transform="translate(7367.167 -20221.605) rotate(-90)"/></g></svg>