<svg xmlns="http://www.w3.org/2000/svg" width="14.306" height="15.463" viewBox="0 0 14.306 15.463"><defs><style>.a{fill:#919a9f;stroke:#919a9f;stroke-width:0.5px;}</style></defs><g transform="translate(-1268.883 -724.217)"><path class="a" d="M14.8,117.42a.324.324,0,0,0-.458,0l-6.894,6.895L.553,117.42a.324.324,0,0,0-.458.458L7.218,125a.325.325,0,0,0,.229.095.321.321,0,0,0,.229-.1l7.123-7.123A.324.324,0,0,0,14.8,117.42Z" transform="translate(1151.843 739.394) rotate(-90)"/><path class="a" d="M14.8,117.42a.324.324,0,0,0-.458,0l-6.894,6.895L.553,117.42a.324.324,0,0,0-.458.458L7.218,125a.325.325,0,0,0,.229.095.321.321,0,0,0,.229-.1l7.123-7.123A.324.324,0,0,0,14.8,117.42Z" transform="translate(1157.843 739.394) rotate(-90)"/></g></svg>