<svg xmlns="http://www.w3.org/2000/svg" width="19" height="21" viewBox="0 0 19 21"><defs><style>.a{fill:#d4d4d4;}</style></defs><path class="a" d="M13,4.009a1,1,0,1,0-2,0l0,8a1,1,0,1,0,2,0Z" transform="translate(-2.5 -3.009)"/><path class="a" d="M4,14.241A9.876,9.876,0,0,1,6.782,7.335L8.462,9.062a7.407,7.407,0,0,0-2.087,5.18A7.227,7.227,0,0,0,13.5,21.567a7.227,7.227,0,0,0,7.125-7.325,7.407,7.407,0,0,0-2.087-5.18l1.679-1.727A9.876,9.876,0,0,1,23,14.241a9.636,9.636,0,0,1-9.5,9.767A9.636,9.636,0,0,1,4,14.241Z" transform="translate(-4 -3.009)"/></svg>