<svg id="writi" xmlns="http://www.w3.org/2000/svg" viewBox="0 0 502 132">
  <g id="logo">
    <path id="Path_10347" data-name="Path 10347" d="M-3880.218-3280.884l-21.292-76.2-21.56,76.2q-2.519,8.67-4,12.439a16.579,16.579,0,0,1-5.167,6.763q-3.686,2.988-9.791,2.986a16.562,16.562,0,0,1-8.131-1.776,13.9,13.9,0,0,1-5.167-5.027,30.9,30.9,0,0,1-3.233-7.716q-1.26-4.463-2.247-8.279l-21.92-85.566a48.3,48.3,0,0,1-1.977-11.357,10.984,10.984,0,0,1,3.591-8.322,12.5,12.5,0,0,1,8.9-3.384q7.276,0,9.794,4.508t4.4,13.093l17.25,74.208,19.318-69.442a109.029,109.029,0,0,1,3.861-12.136,17.546,17.546,0,0,1,5.571-7.2q3.863-3.033,10.511-3.036,6.738,0,10.467,3.164a17.273,17.273,0,0,1,5.165,6.9q1.437,3.73,3.862,12.31l19.5,69.444,17.249-74.211a86.028,86.028,0,0,1,2.381-9.1,14.516,14.516,0,0,1,3.863-5.892q2.735-2.6,7.951-2.6a12.612,12.612,0,0,1,8.848,3.338,10.874,10.874,0,0,1,3.639,8.366q0,3.558-1.978,11.354l-21.921,85.569q-2.246,8.67-3.726,12.7a16.924,16.924,0,0,1-5.034,7.066q-3.548,3.035-10.016,3.037-6.111,0-9.791-2.948a16,16,0,0,1-5.123-6.631Q-3877.613-3271.955-3880.218-3280.884Z" transform="translate(3984.7 3390.577)" fill="#fff"/>
    <path id="Path_10348" data-name="Path 10348" d="M-213.185-3271.62h-9.343v40.81q0,8.057-3.683,11.867a12.763,12.763,0,0,1-9.614,3.812q-6.38,0-9.881-3.985t-3.5-11.7v-97.729q0-8.317,3.863-12.043t12.487-3.724h43.393a136.942,136.942,0,0,1,15.363.736,39.751,39.751,0,0,1,11.5,2.988,33.43,33.43,0,0,1,10.963,7.193,31.322,31.322,0,0,1,7.232,10.873,35.123,35.123,0,0,1,2.471,13.126q0,14.211-8.308,22.7t-25.2,12.043a48.529,48.529,0,0,1,13.568,10.743,109.26,109.26,0,0,1,11.54,15.117,110.728,110.728,0,0,1,7.906,14.469q2.832,6.454,2.828,8.877a8.854,8.854,0,0,1-1.662,4.982,11.527,11.527,0,0,1-4.537,3.9,14.748,14.748,0,0,1-6.648,1.43,13.311,13.311,0,0,1-7.546-2.035,20,20,0,0,1-5.256-5.153q-2.2-3.121-5.974-9.184l-10.691-17.157a94.78,94.78,0,0,0-10.287-14.383,25.286,25.286,0,0,0-9.21-6.756A32.746,32.746,0,0,0-213.185-3271.62Zm15.273-53.372h-24.616v34.917h23.9a69.454,69.454,0,0,0,16.174-1.6q6.56-1.6,10.017-5.459t3.459-10.614a15.989,15.989,0,0,0-2.785-9.314,16.71,16.71,0,0,0-7.726-6.02Q-184.167-3324.99-197.912-3324.992Z" transform="translate(430.521 3347.018)" fill="#fff"/>
    <path id="Path_10349" data-name="Path 10349" d="M3456.607-3323.123H3427.5v92.271q0,7.973-3.682,11.825a12.581,12.581,0,0,1-9.523,3.857,12.758,12.758,0,0,1-9.659-3.9q-3.727-3.895-3.729-11.782v-92.271H3371.8q-6.831,0-10.152-2.9a9.686,9.686,0,0,1-3.325-7.667,9.576,9.576,0,0,1,3.459-7.8q3.46-2.859,10.018-2.86h84.81q6.916,0,10.285,2.947a9.75,9.75,0,0,1,3.369,7.71,9.565,9.565,0,0,1-3.412,7.667Q3463.434-3323.121,3456.607-3323.123Z" transform="translate(-3002.37 3347.057)" fill="#fff"/>
    <path id="Path_10350" data-name="Path 10350" d="M2493.817-3177.422a12.9,12.9,0,0,1-13.134,12.657h0a12.9,12.9,0,0,1-13.133-12.657V-3278.8a12.9,12.9,0,0,1,13.133-12.655h0a12.9,12.9,0,0,1,13.134,12.655Z" transform="translate(-2153.68 3296.766)" fill="#96989a"/>
    <path id="Path_10351" data-name="Path 10351" d="M7815.58,1069.289h4.123l.032-.459h-11.874l.032.459h7.687Z" transform="translate(-7486.71 -1018.127)" fill="#fff"/>
    <path id="Path_10352" data-name="Path 10352" d="M2627.328-2269.812h3.8c.009-.033.023-.067.03-.1.022-.075.039-.154.054-.231.008-.043.011-.086.019-.128H2619.82c.008.042.01.086.021.128.015.077.031.156.052.231.009.034.021.065.03.1Z" transform="translate(-2298.439 2323.833)" fill="#fff"/>
    <path id="Path_10353" data-name="Path 10353" d="M7813.253,1089.253h7.61l.05-.753h-11.741l.024.46.022.292Z" transform="translate(-7487.958 -1036.868)" fill="#fff"/>
    <path id="Path_10354" data-name="Path 10354" d="M2483.127-3335.662c-.044.073-.2.284-.245.35-.031.05.031-.042,0,0h0c-.061.079-.114.16-.18.231l-.146.156a.987.987,0,0,1,.71.937v.02a1,1,0,0,1-1.018.99h-2.533c.51,34.166,4.035,65.206,4.935,72.65a12.338,12.338,0,0,0,2.837-2.2q3.727-3.9,3.727-11.787V-3374.4q0-7.883-3.727-11.74a12.936,12.936,0,0,0-9.75-3.856,12.514,12.514,0,0,0-9.524,3.9q-3.683,3.9-3.684,11.7v100.079q0,7.8,3.73,11.742a12.617,12.617,0,0,0,2.837,2.251c.9-7.443,4.424-38.485,4.934-72.652h-2.53a1,1,0,0,1-1.019-.99v-.018a.989.989,0,0,1,.711-.939l-.146-.155a2.555,2.555,0,0,1-.178-.23h10.011c.035-.045.072-.089.106-.136.048-.07.1-.143.142-.216.018-.03.031-.062.05-.091h-10.608c.016.031.031.061.048.091.045.075.093.146.142.216.031.044.056.094.089.136-.033-.044-.059-.092-.089-.136-.049-.07-.1-.143-.142-.216-.017-.031-.04-.059-.057-.091h.012a3.315,3.315,0,0,1-.3-.711h-.01c-.008-.033-.014-.064-.023-.1-.02-.075-.037-.147-.052-.222-.01-.042-.023-.083-.029-.125h.01c-.021-.123-.049-.243-.058-.367l-.078-1.115-.029-.443h0l-.035-.49-.03-.444h0l-.042-.61a1.13,1.13,0,0,1,1.073-1.252h.988v-.255h-.443v-1.754h2.655v-1.133h-.3v-1.811h.949V-3358.9a.826.826,0,0,1-.774-.812v-.015a.83.83,0,0,1,.843-.819h.178v-8.709a.477.477,0,0,1-.278-.428v-.011a.492.492,0,0,1,.5-.482h.085v-2.561a.314.314,0,0,1-.265-.3v-.127a.317.317,0,0,1,.322-.314h.046v-.49h.205v-3.29a.239.239,0,0,1-.2-.229v0a.238.238,0,0,1,.2-.232v-5.728h.388v5.728a.238.238,0,0,1,.2.232v0a.24.24,0,0,1-.2.229v3.29h.2v.49h.044a.319.319,0,0,1,.323.314v.127a.311.311,0,0,1-.265.3v2.56h.085a.5.5,0,0,1,.354.144.469.469,0,0,1,.146.341v.009a.475.475,0,0,1-.277.43v8.709h.181a.829.829,0,0,1,.84.818v.016a.822.822,0,0,1-.771.811v12.321h.948v1.813h-.3v1.132h2.656v1.754h-.443v.256h.99a1.131,1.131,0,0,1,1.073,1.251l-.044.611h0l-.03.443h0l-.033.49h0l-.049.725h0l-.059.832a3.258,3.258,0,0,1-.056.368" transform="translate(-2150.809 3390.462)" fill="#fff"/>
    <path id="Path_10355" data-name="Path 10355" d="M2844.073-2260.941a3.729,3.729,0,0,1-.3.738" transform="translate(-2511.417 2314.943)" fill="#2a2c2c"/>
    <path id="Path_10356" data-name="Path 10356" d="M8047.041,1089.253l.047-.753h0l-.047.753Z" transform="translate(-7714.171 -1036.868)" fill="#2a2c2c"/>
    <path id="Path_10357" data-name="Path 10357" d="M7807.853,1068.83l.029.459-.029-.459Z" transform="translate(-7486.627 -1018.127)" fill="#2a2c2c"/>
    <path id="Path_10358" data-name="Path 10358" d="M2619.611-2270.28c.008.044.02.084.03.128-.01-.042-.012-.086-.019-.128Z" transform="translate(-2298.166 2323.848)" fill="#2a2c2c"/>
    <path id="Path_10359" data-name="Path 10359" d="M2621.3-2262.842h.01c-.01-.033-.023-.066-.033-.1C2621.29-2262.908,2621.294-2262.875,2621.3-2262.842Z" transform="translate(-2299.754 2316.856)" fill="#2a2c2c"/>
    <line id="Line_6" data-name="Line 6" x2="0.017" transform="translate(332.062 55.168)"/>
    <path id="Path_10360" data-name="Path 10360" d="M2628.1-2245.826c-.017-.03-.033-.061-.05-.094" transform="translate(-2306.195 2300.645)" fill="#2a2c2c"/>
    <path id="Path_10361" data-name="Path 10361" d="M7809.162,1088.5l.049.753-.049-.753Z" transform="translate(-7487.871 -1036.868)" fill="#2a2c2c"/>
    <path id="Path_10362" data-name="Path 10362" d="M5864.466-3391.5a2.2,2.2,0,0,0-1.113-.416s.071-1.221.071-1.411a4.6,4.6,0,0,0-.133-.7l-1.21-4.46a.91.91,0,0,0-1.018-.9c-.284,0-.761.5-.81,1s-.948,3.725-1.136,4.272a6.239,6.239,0,0,0-.262,1.066v6.55c-1.8,1.327-2.42,6.12-2.754,7.507s-3.227,3.688-3.7,4.258-3.134,2.373-6.885,5.031-3.869,5.889-3.869,5.889h23.969v-24.811A3.141,3.141,0,0,0,5864.466-3391.5Z" transform="translate(-5363.619 3399.39)" fill="#fff"/>
    <path id="Path_10363" data-name="Path 10363" d="M5841.71-2556.506v10.572a3.834,3.834,0,0,0,3.833,3.832h16.267a3.83,3.83,0,0,0,3.83-3.832v-94.446H5841.71Z" transform="translate(-5363.677 2672.92)" fill="#fff"/>
  </g>
</svg>
