<svg xmlns="http://www.w3.org/2000/svg" width="198.982" height="79.768" viewBox="0 0 198.982 79.768"><defs><style>.a{fill:#96989a;}.b{fill:#fff;}.c{fill:#2a2c2c;}.d{fill:none;}</style></defs><g transform="translate(-584 -96)"><g transform="translate(237.564 -94.926)"><g transform="translate(346.436 190.926)"><path d="M387.85,234.36l-8.439-30.2-8.545,30.2q-1,3.435-1.585,4.931a6.579,6.579,0,0,1-2.048,2.679,5.964,5.964,0,0,1-3.88,1.184,6.56,6.56,0,0,1-3.222-.705,5.492,5.492,0,0,1-2.048-1.992A12.276,12.276,0,0,1,356.8,237.4q-.5-1.769-.893-3.282L347.22,200.2a19.223,19.223,0,0,1-.784-4.5,4.36,4.36,0,0,1,1.423-3.3,4.958,4.958,0,0,1,3.527-1.339q2.884,0,3.882,1.787a19.579,19.579,0,0,1,1.744,5.189l6.837,29.412L371.5,199.93a43.293,43.293,0,0,1,1.53-4.81,6.954,6.954,0,0,1,2.21-2.848,6.571,6.571,0,0,1,4.169-1.2,6.217,6.217,0,0,1,4.147,1.254,6.844,6.844,0,0,1,2.047,2.733q.571,1.478,1.53,4.879l7.729,27.524,6.837-29.414a33.952,33.952,0,0,1,.944-3.608,5.745,5.745,0,0,1,1.53-2.335,4.4,4.4,0,0,1,3.151-1.031,5,5,0,0,1,3.507,1.322,4.309,4.309,0,0,1,1.442,3.317,20.754,20.754,0,0,1-.784,4.5l-8.689,33.915q-.893,3.435-1.477,5.031a6.693,6.693,0,0,1-1.995,2.8,5.918,5.918,0,0,1-3.968,1.2,6.016,6.016,0,0,1-3.88-1.168,6.34,6.34,0,0,1-2.031-2.628Q388.883,237.9,387.85,234.36Z" transform="translate(-346.436 -190.882)"/><path d="M414.533,220.544h-3.7v16.174a6.563,6.563,0,0,1-1.459,4.7,5.066,5.066,0,0,1-3.811,1.51,4.937,4.937,0,0,1-3.916-1.58,6.834,6.834,0,0,1-1.389-4.636V197.983q0-3.3,1.532-4.774t4.949-1.475h17.2a54.229,54.229,0,0,1,6.089.291,15.848,15.848,0,0,1,4.557,1.184,13.243,13.243,0,0,1,4.345,2.852,12.4,12.4,0,0,1,2.866,4.31,13.9,13.9,0,0,1,.98,5.2,12.306,12.306,0,0,1-3.293,9q-3.293,3.365-9.988,4.774a19.245,19.245,0,0,1,5.377,4.258,43.409,43.409,0,0,1,4.575,5.991,43.97,43.97,0,0,1,3.133,5.731,10.973,10.973,0,0,1,1.122,3.518,3.507,3.507,0,0,1-.658,1.975,4.579,4.579,0,0,1-1.8,1.546,5.857,5.857,0,0,1-2.636.566,5.274,5.274,0,0,1-2.99-.807,7.919,7.919,0,0,1-2.084-2.043q-.873-1.238-2.367-3.64l-4.238-6.8a37.513,37.513,0,0,0-4.077-5.7,10.019,10.019,0,0,0-3.648-2.68A12.981,12.981,0,0,0,414.533,220.544Zm6.054-21.154h-9.754v13.84H420.3a27.509,27.509,0,0,0,6.411-.636,7.587,7.587,0,0,0,3.97-2.165,6.066,6.066,0,0,0,1.371-4.206,6.34,6.34,0,0,0-1.1-3.692,6.616,6.616,0,0,0-3.062-2.386q-1.855-.757-7.307-.758Z" transform="translate(-328.39 -190.656)"/><path d="M491.049,200.148H479.512v36.571a6.575,6.575,0,0,1-1.459,4.69,4.987,4.987,0,0,1-3.774,1.529,5.06,5.06,0,0,1-3.828-1.546,6.522,6.522,0,0,1-1.478-4.67V200.15H457.434A5.989,5.989,0,0,1,453.411,199a3.844,3.844,0,0,1-1.319-3.038,3.8,3.8,0,0,1,1.371-3.091,6.087,6.087,0,0,1,3.971-1.134h33.613a6.059,6.059,0,0,1,4.077,1.168,3.861,3.861,0,0,1,1.335,3.056A3.785,3.785,0,0,1,495.107,199,6.135,6.135,0,0,1,491.049,200.148Z" transform="translate(-311.011 -190.659)"/><path class="a" d="M450.013,237.7a5.114,5.114,0,0,1-5.2,5.017h0A5.112,5.112,0,0,1,439.6,237.7V197.518a5.111,5.111,0,0,1,5.205-5.015h0a5.113,5.113,0,0,1,5.2,5.015Z" transform="translate(-315.198 -190.398)"/><path class="b" d="M444.821,206.16h1.637l.013-.182h-4.706l.012.182h3.043Z" transform="translate(-314.472 -185.879)"/><path class="b" d="M444.806,207.008h1.509a.184.184,0,0,1,.011-.039.767.767,0,0,0,.021-.092.331.331,0,0,1,.008-.051h-4.524a.168.168,0,0,0,.008.051q.008.046.02.092c0,.013.009.025.012.039Z" transform="translate(-314.451 -185.595)"/><path class="b" d="M443.4,206.551h3.018l.019-.3h-4.653l.011.183.009.116Z" transform="translate(-314.467 -185.787)"/><path d="M446.93,212.6c-.017.029-.079.112-.1.139s.013-.016,0,0h0a.953.953,0,0,1-.073.091l-.057.063a.389.389,0,0,1,.28.371v.008a.4.4,0,0,1-.4.393h-1c.2,13.541,1.6,25.844,1.956,28.794a4.861,4.861,0,0,0,1.124-.875,6.537,6.537,0,0,0,1.477-4.671V197.244a6.466,6.466,0,0,0-1.477-4.652,5.132,5.132,0,0,0-3.864-1.529,4.96,4.96,0,0,0-3.775,1.546,6.527,6.527,0,0,0-1.459,4.637v39.666a6.54,6.54,0,0,0,1.478,4.653,5.02,5.02,0,0,0,1.124.893c.357-2.951,1.752-15.254,1.955-28.8h-1a.4.4,0,0,1-.4-.391h0v-.007a.391.391,0,0,1,.282-.373l-.057-.061a.924.924,0,0,1-.071-.091h3.969c.013-.017.028-.036.041-.055s.039-.056.057-.085l.02-.036h-4.2l.02.036c.017.031.037.059.056.085s.023.037.035.055c-.013-.017-.023-.036-.035-.055s-.039-.056-.056-.085c-.007-.012-.016-.023-.024-.036h.005a1.3,1.3,0,0,1-.119-.282h-.005a.206.206,0,0,0-.008-.039c-.008-.029-.015-.057-.021-.088a.3.3,0,0,1-.011-.049h0a1.448,1.448,0,0,1-.023-.148l-.032-.442-.011-.176h0l-.013-.194-.012-.176h0l-.017-.242a.446.446,0,0,1,.394-.494l.032,0h.391v-.1h-.175v-.7h1.052v-.446h-.119v-.717h.375v-4.883a.327.327,0,0,1-.306-.322v-.007a.328.328,0,0,1,.332-.324h.072v-3.45a.192.192,0,0,1-.111-.171v0a.2.2,0,0,1,.2-.191h.033V197.9a.124.124,0,0,1-.105-.12v-.049a.125.125,0,0,1,.127-.124h.019v-.195h.082v-1.3a.093.093,0,0,1-.08-.091h0a.094.094,0,0,1,.08-.092v-2.27h.154v2.27a.093.093,0,0,1,.081.092h0a.094.094,0,0,1-.081.091v1.3H445v.195h.017a.126.126,0,0,1,.128.124v.049a.124.124,0,0,1-.1.12v1.015h.033a.2.2,0,0,1,.14.056.184.184,0,0,1,.057.135h0a.188.188,0,0,1-.109.171v3.452h.075a.328.328,0,0,1,.333.323v.007a.325.325,0,0,1-.306.322v4.883h.373v.718h-.119v.447h1.054v.694H446.4v.1h.393a.447.447,0,0,1,.429.465l0,.031-.017.242h0l-.012.176h0l-.013.195h0l-.019.287h0l-.024.33a1.423,1.423,0,0,1-.021.148" transform="translate(-315.213 -190.881)"/><path class="c" d="M445.208,206.957a1.463,1.463,0,0,1-.12.292" transform="translate(-313.358 -185.551)"/><path class="c" d="M445.241,206.551l.019-.3h0Z" transform="translate(-313.307 -185.787)"/><path class="c" d="M441.785,205.977l.012.182Z" transform="translate(-314.466 -185.88)"/><path class="c" d="M441.85,206.827a.259.259,0,0,0,.012.052c0-.016,0-.035-.007-.052Z" transform="translate(-314.444 -185.595)"/><path class="c" d="M441.883,206.97h0l-.013-.039Z" transform="translate(-314.436 -185.56)"/><line class="d" x2="0.007" transform="translate(131.615 21.867)"/><path class="c" d="M441.992,207.208l-.02-.037" transform="translate(-314.403 -185.479)"/><path class="c" d="M441.805,206.253l.017.3Z" transform="translate(-314.459 -185.787)"/><path d="M497.371,194.053a.875.875,0,0,0-.441-.164s.028-.483.028-.559a1.767,1.767,0,0,0-.052-.276l-.479-1.768a.361.361,0,0,0-.363-.359h-.04c-.114,0-.3.2-.322.4s-.377,1.475-.446,1.693a2.421,2.421,0,0,0-.105.423v2.6c-.713.526-.959,2.425-1.091,2.978s-1.279,1.462-1.466,1.688a33.645,33.645,0,0,1-2.729,1.995,3.288,3.288,0,0,0-1.533,2.333h9.5v-9.833A1.243,1.243,0,0,0,497.371,194.053Z" transform="translate(-298.86 -190.926)"/><path d="M488.329,233.829v4.19a1.52,1.52,0,0,0,1.52,1.518H496.3a1.518,1.518,0,0,0,1.518-1.518V200.586h-9.485Z" transform="translate(-298.86 -187.687)"/></g><path d="M409.311,251.24a4.958,4.958,0,0,0,4.392-2.457l-1.638-.835a3.2,3.2,0,0,1-2.753,1.588,3.742,3.742,0,0,1-3.772-3.711c0-.077,0-.156.005-.234a3.742,3.742,0,0,1,3.533-3.939c.077-.005.155-.007.234-.005a3.241,3.241,0,0,1,2.753,1.588l1.638-.835a4.938,4.938,0,0,0-4.392-2.457,5.51,5.51,0,0,0-5.73,5.278c0,.124-.005.247,0,.371a5.509,5.509,0,0,0,5.364,5.65C409.065,251.245,409.188,251.245,409.311,251.24Zm9.449,0a3.959,3.959,0,0,0,4.081-3.832c0-.109,0-.218,0-.327a3.954,3.954,0,0,0-3.759-4.141c-.107-.005-.212-.005-.319,0a3.96,3.96,0,0,0-4.065,3.852c0,.1,0,.194,0,.291a3.962,3.962,0,0,0,3.762,4.155C418.559,251.241,418.659,251.242,418.759,251.24Zm0-1.524a2.652,2.652,0,1,1,2.293-2.636A2.376,2.376,0,0,1,418.759,249.716Zm12.871,1.327v-5.568a2.28,2.28,0,0,0-2.554-2.538,3.746,3.746,0,0,0-2.781,1.278v-1.082h-1.72v7.91h1.72v-5.519a2.6,2.6,0,0,1,2.031-1.064c.967,0,1.588.409,1.588,1.637v4.946Zm9.286,0v-5.568a2.28,2.28,0,0,0-2.554-2.538,3.74,3.74,0,0,0-2.784,1.278v-1.082h-1.72v7.91h1.72v-5.519a2.6,2.6,0,0,1,2.031-1.064c.968,0,1.589.409,1.589,1.637v4.946Zm5.881.2a4.609,4.609,0,0,0,3.209-1.147l-.785-1.13a3.35,3.35,0,0,1-2.243.868,2.4,2.4,0,0,1-2.522-2.178h6.1v-.406c0-2.489-1.522-4.308-3.9-4.308a4,4,0,0,0-4.015,3.982c0,.053,0,.108,0,.162a3.976,3.976,0,0,0,3.788,4.155,3.483,3.483,0,0,0,.355,0Zm2.1-4.8h-4.453a2.18,2.18,0,0,1,2.225-2.1,2.115,2.115,0,0,1,2.225,2c0,.032,0,.064,0,.1Zm6.974,4.8a3.548,3.548,0,0,0,3.031-1.409l-1.131-1.048a2.147,2.147,0,0,1-1.817.933,2.4,2.4,0,0,1-2.4-2.4c0-.079,0-.158.011-.236a2.388,2.388,0,0,1,2.144-2.609,2.193,2.193,0,0,1,.247-.011,2.108,2.108,0,0,1,1.817.933l1.131-1.05a3.547,3.547,0,0,0-3.03-1.409,3.969,3.969,0,0,0-4.1,3.838c0,.1,0,.2,0,.306a3.974,3.974,0,0,0,3.779,4.158C455.657,251.242,455.762,251.242,455.866,251.24Zm6.911,0a2.272,2.272,0,0,0,1.621-.507l-.41-1.294a1.1,1.1,0,0,1-.769.278c-.491,0-.753-.393-.753-.933v-4.141h1.605v-1.508h-1.605v-2.158h-1.72v2.158h-1.31v1.508h1.31v4.568a1.825,1.825,0,0,0,1.593,2.03A1.848,1.848,0,0,0,462.777,251.24Zm3.7-9.072a1.063,1.063,0,0,0,1.065-1.06v0a1.062,1.062,0,0,0-1.06-1.064h-.005a1.064,1.064,0,1,0,0,2.128Zm.868,8.876v-7.91h-1.719v7.91Zm9.286,0v-5.568a2.28,2.28,0,0,0-2.554-2.538,3.742,3.742,0,0,0-2.784,1.278v-1.082h-1.72v7.91h1.72v-5.519a2.6,2.6,0,0,1,2.031-1.064c.967,0,1.588.409,1.588,1.637v4.946Zm5.433,3.209c1.95,0,4.062-.769,4.062-3.619v-7.5h-1.72v1.1a3.153,3.153,0,0,0-2.538-1.294c-2.031,0-3.5,1.506-3.5,4.062,0,2.605,1.487,4.061,3.5,4.061a3.213,3.213,0,0,0,2.538-1.31v.949a2.08,2.08,0,0,1-2.342,2.146,3.064,3.064,0,0,1-2.505-1.016l-.8,1.244a4.459,4.459,0,0,0,3.307,1.179Zm.311-4.716a2.559,2.559,0,0,1,0-5.075,2.568,2.568,0,0,1,2.031,1.064v2.947a2.561,2.561,0,0,1-2.028,1.064Zm15.479,1.7a4.958,4.958,0,0,0,4.392-2.457l-1.638-.835a3.205,3.205,0,0,1-2.753,1.588,3.741,3.741,0,0,1-3.772-3.711c0-.077,0-.156.005-.234a3.741,3.741,0,0,1,3.533-3.939c.077-.005.155-.007.234-.005a3.241,3.241,0,0,1,2.753,1.588l1.638-.835a4.94,4.94,0,0,0-4.392-2.457,5.51,5.51,0,0,0-5.73,5.278c0,.124-.005.247,0,.371a5.508,5.508,0,0,0,5.364,5.65C497.608,251.245,497.731,251.245,497.854,251.24Zm12.429-.2V245.8c0-2.128-1.54-2.866-3.292-2.866a4.7,4.7,0,0,0-3.325,1.278l.705,1.2a3.236,3.236,0,0,1,2.341-1c1.1,0,1.851.557,1.851,1.474v1.179a3.267,3.267,0,0,0-2.554-1.016,2.548,2.548,0,0,0-2.741,2.338c-.005.077-.008.155-.008.234a2.627,2.627,0,0,0,2.631,2.622l.124,0a3.34,3.34,0,0,0,2.554-1.048v.852Zm-3.6-.983a1.5,1.5,0,0,1-1.677-1.3c0-.036-.008-.073-.009-.111a1.5,1.5,0,0,1,1.565-1.434c.04,0,.081,0,.122.009a2.318,2.318,0,0,1,1.883.819v1.2A2.314,2.314,0,0,1,506.68,250.061Zm7.548.983v-5.388a2.735,2.735,0,0,1,2.031-1.048,2.534,2.534,0,0,1,.541.049v-1.7a3.381,3.381,0,0,0-2.572,1.341v-1.163H512.51v7.913Zm7.615.2a4.615,4.615,0,0,0,3.21-1.147l-.786-1.13a3.35,3.35,0,0,1-2.243.868,2.4,2.4,0,0,1-2.522-2.178h6.109v-.406c0-2.489-1.524-4.308-3.9-4.308a4,4,0,0,0-4.015,3.98c0,.053,0,.107,0,.16a3.975,3.975,0,0,0,3.784,4.158A3.562,3.562,0,0,0,521.844,251.24Zm2.1-4.8h-4.453a2.181,2.181,0,0,1,2.226-2.1,2.116,2.116,0,0,1,2.225,2C523.939,246.377,523.94,246.409,523.94,246.442Z" transform="translate(19.159 16.433)"/></g></g></svg>