<svg id="line" xmlns="http://www.w3.org/2000/svg" viewBox="0 0 488 496"><defs><style>.cls-1{fill:#8dc9d3;}.cls-2{fill:#282828;}</style></defs><title>no-data</title><path class="cls-1" d="M476,232H252a24,24,0,0,0-24,24V480a24,24,0,0,0,24,24H476a24,24,0,0,0,24-24V256A24,24,0,0,0,476,232ZM463.42,465.11a10,10,0,0,1-14.12-.25l-82.8-82.8-82.8,82.8-.24.24a10,10,0,0,1-13.88-14.36l82.8-82.8-82.8-82.8A10,10,0,0,1,283.7,271l82.8,82.8L449.3,271h0a10,10,0,0,1,14.12,0h0a10,10,0,0,1,0,14.12l-82.8,82.8,82.8,82.8.24.24A10,10,0,0,1,463.42,465.11Z" transform="translate(-12 -8)"/><path class="cls-2" d="M260,32H204A24,24,0,0,0,180,8H116A24,24,0,0,0,92,32H36A24,24,0,0,0,12,56V352a24,24,0,0,0,24,24H260a24,24,0,0,0,24-24V56A24,24,0,0,0,260,32ZM108,32a8,8,0,0,1,8-8h64a8,8,0,0,1,8,8V48a8,8,0,0,1-8,8H116a8,8,0,0,1-8-8ZM268,352a8,8,0,0,1-8,8H36a8,8,0,0,1-8-8V56a8,8,0,0,1,8-8H92a24,24,0,0,0,24,24h64a24,24,0,0,0,24-24h56a8,8,0,0,1,8,8Z" transform="translate(-12 -8)"/><path class="cls-2" d="M124,136h16v16a8,8,0,0,0,16,0V136h16a8,8,0,0,0,0-16H156V104a8,8,0,0,0-16,0v16H124a8,8,0,0,0,0,16Z" transform="translate(-12 -8)"/><path class="cls-2" d="M236,184H60a8,8,0,0,0,0,16H236a8,8,0,0,0,0-16Z" transform="translate(-12 -8)"/><path class="cls-2" d="M236,232H60a8,8,0,0,0,0,16H236a8,8,0,0,0,0-16Z" transform="translate(-12 -8)"/><path class="cls-2" d="M236,280H60a8,8,0,0,0,0,16H236a8,8,0,0,0,0-16Z" transform="translate(-12 -8)"/></svg>