<svg xmlns="http://www.w3.org/2000/svg" width="88.948" height="20.941" viewBox="0 0 88.948 20.941"><defs><style>.a{fill:#2d2d30;}</style></defs><g transform="translate(-688.969 -712)"><g transform="translate(594.82 615.882)"><g transform="translate(94.149 96.118)"><path class="a" d="M136.838,106.971a3.283,3.283,0,1,0,3.3,3.284A3.237,3.237,0,0,0,136.838,106.971Zm0,5.273a2,2,0,1,1,1.852-1.99A1.9,1.9,0,0,1,136.838,112.245Zm-7.189-5.273a3.283,3.283,0,1,0,3.3,3.284A3.237,3.237,0,0,0,129.649,106.971Zm0,5.273a2,2,0,1,1,1.852-1.99A1.9,1.9,0,0,1,129.649,112.245Zm-8.553-4.266v1.394h3.333a2.906,2.906,0,0,1-.759,1.753,3.413,3.413,0,0,1-2.575,1.02,3.707,3.707,0,0,1,0-7.413,3.552,3.552,0,0,1,2.512,1l.983-.982a4.862,4.862,0,0,0-3.5-1.406,5.1,5.1,0,1,0,0,10.2,4.661,4.661,0,0,0,3.557-1.43,5.025,5.025,0,0,0,1.132-4.129Zm34.977,1.083a3.053,3.053,0,0,0-2.811-2.09,3.121,3.121,0,0,0-3.1,3.284,3.213,3.213,0,0,0,3.259,3.283,3.266,3.266,0,0,0,2.735-1.455l-1.119-.746a1.874,1.874,0,0,1-1.616.908,1.67,1.67,0,0,1-1.592-1l4.39-1.816Zm-4.478,1.094a1.8,1.8,0,0,1,1.716-1.915,1.272,1.272,0,0,1,1.219.7Zm-3.569,3.185h1.442v-9.651h-1.442Zm-2.363-5.634h-.05a2.278,2.278,0,0,0-1.729-.734,3.286,3.286,0,0,0,0,6.567,2.243,2.243,0,0,0,1.729-.746h.05v.473c0,1.255-.671,1.927-1.754,1.927a1.815,1.815,0,0,1-1.654-1.169l-1.257.522a3.13,3.13,0,0,0,2.91,1.94c1.692,0,3.122-.994,3.122-3.42v-5.9h-1.368Zm-1.654,4.539a2,2,0,0,1,0-3.98,2.006,2.006,0,0,1,0,3.98Zm18.821-8.556h-3.452v9.651h1.44v-3.656h2.012a3,3,0,1,0,0-5.994Zm.037,4.65h-2.049v-3.308h2.049a1.654,1.654,0,1,1,0,3.308Zm8.9-1.385a2.7,2.7,0,0,0-2.57,1.477l1.278.534a1.365,1.365,0,0,1,1.316-.708,1.387,1.387,0,0,1,1.516,1.241v.1a3.188,3.188,0,0,0-1.5-.372c-1.379,0-2.781.758-2.781,2.173a2.229,2.229,0,0,0,2.4,2.123,2.034,2.034,0,0,0,1.838-.943h.05v.745h1.39v-3.7A2.647,2.647,0,0,0,171.769,106.954Zm-.174,5.288c-.473,0-1.13-.235-1.13-.819,0-.745.819-1.031,1.527-1.031a2.563,2.563,0,0,1,1.316.324A1.746,1.746,0,0,1,171.6,112.243Zm8.169-5.078-1.651,4.184h-.05l-1.713-4.184H174.8l2.57,5.848-1.466,3.254h1.5l3.961-9.1Zm-12.973,6.175h1.44v-9.651h-1.44Z" transform="translate(-92.418 -95.544)"/><g transform="translate(0 0.644)"><path class="a" d="M94.149,97.576v17.059a1.67,1.67,0,0,0,.037.358l8.887-8.889-8.887-8.887A1.67,1.67,0,0,0,94.149,97.576Z" transform="translate(-94.149 -96.675)"/><path class="a" d="M109.694,104.954l-3.528-2-2.7,2.7,2.7,2.7,3.529-2c.359-.205.565-.459.565-.7S110.053,105.159,109.694,104.954Z" transform="translate(-93.409 -96.219)"/><path class="a" d="M103.584,106.08l-8.751,8.751a1.555,1.555,0,0,0,.505-.187l10.719-6.092Z" transform="translate(-94.095 -95.971)"/><path class="a" d="M106.058,102.994,95.338,96.9a1.579,1.579,0,0,0-.505-.188l8.751,8.753Z" transform="translate(-94.095 -96.715)"/></g><g transform="translate(23.825)"><path class="a" d="M119.607,97.126a1.646,1.646,0,0,0-1.094-.422,1.745,1.745,0,0,0,0,3.487,1.317,1.317,0,0,0,1.45-1.226h-1.292v-.533h1.991c0,1.6-.851,2.347-2.148,2.347a2.33,2.33,0,0,1,0-4.66,2.247,2.247,0,0,1,1.535.6Z" transform="translate(-116.22 -96.118)"/><path class="a" d="M123.8,96.167v.573h-2.077v1.45h1.812v.574h-1.812v1.371h2.143v.573h-2.756V96.167Z" transform="translate(-115.831 -96.114)"/><path class="a" d="M127.533,96.167v.58h-1.377v3.962h-.62V96.747h-1.377v-.58Z" transform="translate(-115.589 -96.114)"/><path class="a" d="M130.054,96.167v4.541h-.613V96.167Z" transform="translate(-115.169 -96.114)"/><path class="a" d="M134.129,96.167v.58h-1.377v3.962h-.62V96.747h-1.377v-.58Z" transform="translate(-115.065 -96.114)"/><path class="a" d="M138.056,96.118a2.33,2.33,0,1,1-2.294,2.333A2.3,2.3,0,0,1,138.056,96.118Zm0,4.066a1.738,1.738,0,1,0-1.681-1.734A1.693,1.693,0,0,0,138.056,100.184Z" transform="translate(-114.667 -96.118)"/><path class="a" d="M143.581,100.708l-2.069-3.421v3.421H140.9V96.167h.607l2.049,3.394V96.167h.613v4.541Z" transform="translate(-114.258 -96.114)"/></g></g></g></g></svg>