<svg fill="#f22727" xmlns="http://www.w3.org/2000/svg" width="15" height="15" viewBox="0 0 12 12"><defs><style>.a{fill:#f22727;}</style></defs><path class="a" d="M6,0a6,6,0,1,0,6,6A6,6,0,0,0,6,0ZM6,11.2A5.2,5.2,0,1,1,11.2,6,5.206,5.206,0,0,1,6,11.2Z"/><g transform="translate(5.6 4.917)"><path class="a" d="M239.33,209.777a.4.4,0,0,0-.4.4v3.374a.4.4,0,1,0,.8,0v-3.374A.4.4,0,0,0,239.33,209.777Z" transform="translate(-238.93 -209.777)"/></g><g transform="translate(5.2 2.909)"><path class="a" d="M222.667,124.122a.8.8,0,1,0,.8.8A.8.8,0,0,0,222.667,124.122Z" transform="translate(-221.867 -124.122)"/></g></svg>