<svg xmlns="http://www.w3.org/2000/svg" width="18.784" height="17.25" viewBox="0 0 18.784 17.25"><defs><style>.a{fill:#919a9f;stroke:rgba(0,0,0,0);}</style></defs><g transform="translate(0.5 0.5)"><path class="a" d="M393.754,225.129h5.038c.169,0,.306-.2.306-.437s-.131-.438-.306-.438h-5.038c-.171,0-.306.192-.306.438S393.579,225.129,393.754,225.129Z" transform="translate(-391.139 -218.104)"/><path class="a" d="M397.6,227.112H393.8a.445.445,0,0,0,.011.875H397.6a.446.446,0,0,0,0-.874Z" transform="translate(-391.139 -217.886)"/><path class="a" d="M393.8,222.271h3.166a.444.444,0,0,0-.011-.874H393.8a.435.435,0,0,0-.283.189.444.444,0,0,0,.283.683Z" transform="translate(-391.139 -218.321)"/><path class="a" d="M404.478,224.707v-4.193a1.982,1.982,0,0,0-1.976-1.976h-9.225a1.983,1.983,0,0,0-1.975,1.976v12.3a1.982,1.982,0,0,0,1.975,1.975h9.993a.455.455,0,0,0,.172-.034,5.241,5.241,0,0,0,.6.034,5.047,5.047,0,0,0,5.047-5.052A5.076,5.076,0,0,0,404.478,224.707Zm-12.3-4.193a1.1,1.1,0,0,1,1.1-1.1H402.5a1.1,1.1,0,0,1,1.1,1.1v4.193a5.05,5.05,0,0,0-4.6,5.419,5.073,5.073,0,0,0,2.194,3.787h-7.922a1.1,1.1,0,0,1-1.1-1.1Zm16.036,9.225a4.175,4.175,0,1,1-4.176-4.175A4.188,4.188,0,0,1,408.214,229.739Z" transform="translate(-391.302 -218.539)"/><path class="a" d="M405.637,228.7H403.77v-1.867a.439.439,0,1,0-.877,0V228.7h-1.867a.438.438,0,1,0,0,.876h1.867v1.868a.439.439,0,1,0,.877,0v-1.868h1.867a.438.438,0,1,0,0-.876Z" transform="translate(-390.595 -217.941)"/></g></svg>