<svg xmlns="http://www.w3.org/2000/svg" width="10.521" height="15" viewBox="0 0 10.521 15"><defs><style>.a{fill:#609fae;}</style></defs><g transform="translate(-22.44 -4.75)"><path class="a" d="M41.35,60.911v-.728h.728a.222.222,0,0,0,.222-.222V58.7a.222.222,0,0,0-.222-.222H41.35v-.728a.222.222,0,0,0-.222-.222H39.863a.222.222,0,0,0-.222.222v.728h-.728a.222.222,0,0,0-.222.222v1.266a.222.222,0,0,0,.222.222h.728v.728a.222.222,0,0,0,.222.222h1.266A.222.222,0,0,0,41.35,60.911Zm-.443-.949v.728h-.823v-.728a.222.222,0,0,0-.222-.222h-.728v-.823h.728a.222.222,0,0,0,.222-.222v-.728h.823V58.7a.222.222,0,0,0,.222.222h.728v.823h-.728a.222.222,0,0,0-.222.222Z" transform="translate(-14.195 -46.095)"/><path class="a" d="M32.961,16.649a3.105,3.105,0,0,0-2.8-3.086V9.1a1.488,1.488,0,0,0-.371-.983L28.191,6.3V4.972a.222.222,0,0,0-.222-.222H24.633a.222.222,0,0,0-.222.222V6.3l-1.6,1.817a1.488,1.488,0,0,0-.372.983V19.528a.222.222,0,0,0,.222.222H29.94l.027,0A3.1,3.1,0,0,0,32.961,16.649Zm-5.129,1.715a2.655,2.655,0,0,1,3.742-3.743Zm-4.949-7.439h6.835v2.626a3.107,3.107,0,0,0-2.756,1.994H22.883Zm1.971-5.732h2.894v.971H24.854Zm-1.71,3.218,1.589-1.8h3.136l1.589,1.8a1.045,1.045,0,0,1,.26.691v1.38H22.883V9.1a1.045,1.045,0,0,1,.261-.69Zm-.261,10.9V15.988H26.83a3.1,3.1,0,0,0,1.434,3.319Zm6.977,0a2.646,2.646,0,0,1-1.715-.63l3.743-3.743a2.655,2.655,0,0,1-2.028,4.373Z" transform="translate(0)"/></g></svg>