<?xml version="1.0" encoding="utf-8"?>
<!-- Generator: Adobe Illustrator 23.0.3, SVG Export Plug-In . SVG Version: 6.00 Build 0)  -->
<svg version="1.1" id="Capa_1" xmlns="http://www.w3.org/2000/svg" xmlns:xlink="http://www.w3.org/1999/xlink" x="0px" y="0px"
	 viewBox="0 0 532.1 536" style="enable-background:new 0 0 532.1 536;" xml:space="preserve">
<style type="text/css">
	.st0{fill:#919A9F;}
	.st1{fill:none;stroke:#919A9F;stroke-width:20;stroke-miterlimit:10;}
</style>
<g>
	<g>
		<g>
			<path class="st0" d="M382,293.1c-12.5-1.6-24.9-4.7-36.7-9.1c-13.1-4.9-28-1.7-38,8.1l-12.8,12.7c-28.7-17.5-52.8-41.5-70.3-70.1
				l12.8-12.8c9.8-9.9,13-24.8,8.1-37.9c-4.4-11.8-7.5-24.1-9.2-36.7c-2.5-17.8-17.9-31.3-35.9-30.9h-41.2c-1.1,0-2.1,0.1-3.2,0.2
				c-9.6,0.9-18.2,5.4-24.4,12.8c-6.2,7.4-9.1,16.7-8.2,26.4c4.6,43.5,19.7,85.9,43.4,122.5c21.6,33.9,51,63.3,84.9,84.8
				c36.6,23.7,78.8,38.7,122.4,43.4c1.1,0.1,2.2,0.1,3.4,0.1c9.6,0,18.6-3.8,25.4-10.6c6.8-6.8,10.5-15.9,10.4-25.4v-41
				C413.5,311.3,400.2,295.7,382,293.1z M396,329.4v41.1c0,5-1.9,9.8-5.5,13.4c-3.6,3.6-8.3,5.6-13.3,5.6c-0.6,0-1.2,0-1.7-0.1
				c-40.7-4.4-80.4-18.5-114.8-40.8c-31.9-20.2-59.5-47.8-79.8-79.6c-22.4-34.5-36.5-74.2-40.8-114.9c-0.5-5,1.1-9.9,4.3-13.8
				c3.2-3.9,7.8-6.3,12.9-6.7c0.6-0.1,1.1-0.1,1.7-0.1h41.3c0.1,0,0.1,0,0.2,0c9.4,0,17.4,6.9,18.7,16.2
				c1.8,13.8,5.2,27.4,10.1,40.4c2.6,6.9,0.9,14.7-4.2,19.9l-17.4,17.4c-2.7,2.7-3.3,6.9-1.4,10.3c20.3,35.6,49.9,65.2,85.6,85.4
				c3.3,1.9,7.5,1.3,10.2-1.4l17.4-17.4c5.2-5.2,13.1-6.9,20-4.2c13,4.9,26.6,8.2,40.4,10c9.5,1.3,16.5,9.6,16.3,19.2
				C396,329.3,396,329.4,396,329.4z"/>
		</g>
	</g>
</g>
<circle class="st1" cx="266" cy="268.5" r="256"/>
</svg>
