<svg xmlns="http://www.w3.org/2000/svg" width="18.49" height="18.054" viewBox="0 0 18.49 18.054">
  <g id="care" transform="translate(-213.852 -324.844)">
    <path id="Path_154" data-name="Path 154" d="M231.8,327.6h.006l-.1-.208a4.573,4.573,0,0,0-4.3-2.542,5.683,5.683,0,0,0-4.306,2.093,5.673,5.673,0,0,0-4.3-2.092,4.542,4.542,0,0,0-4.3,2.54c-1.2,2.4-.679,6.1,1.208,8.6a36.1,36.1,0,0,0,7.179,6.839.408.408,0,0,0,.1.047.393.393,0,0,0,.115.017.421.421,0,0,0,.131-.027.15.15,0,0,0,.055-.025l.043-.021a36.183,36.183,0,0,0,7.164-6.834A8.922,8.922,0,0,0,231.8,327.6Zm-8.741.386.162-.014.024-.009.046-.018a.393.393,0,0,0,.1-.076l.032-.035a5.079,5.079,0,0,1,4-2.169,3.713,3.713,0,0,1,3.559,2.094c1.069,2.137.586,5.466-1.122,7.743a35.093,35.093,0,0,1-6.75,6.489,35.054,35.054,0,0,1-6.75-6.487c-1.714-2.274-2.2-5.6-1.13-7.752a3.708,3.708,0,0,1,3.344-2.093c.072,0,.146,0,.218.007a5.075,5.075,0,0,1,3.992,2.164l.032.035a.427.427,0,0,0,.1.077Zm-.035-.152Z" transform="translate(0 0)" fill="#bc00d1"/>
    <path id="Path_155" data-name="Path 155" d="M222.5,330.329a.409.409,0,0,0-.308-.02.4.4,0,0,0-.268.294l-.856,3.7-.577-2.118a.405.405,0,0,0-.5-.278.409.409,0,0,0-.243.193l-.658,1.212H217.25a.407.407,0,0,0,0,.813h2.07a.4.4,0,0,0,.357-.213l.291-.535.733,2.7a.408.408,0,0,0,.4.3h0a.4.4,0,0,0,.388-.315l.9-3.887,1.339,3.927a.413.413,0,0,0,.405.274h0a.4.4,0,0,0,.375-.313l.86-3.7.576,2.118a.408.408,0,0,0,.5.279.417.417,0,0,0,.243-.193l.66-1.211h1.827a.407.407,0,0,0,0-.814h-2.07a.406.406,0,0,0-.357.214l-.29.535-.734-2.695a.406.406,0,0,0-.189-.248.394.394,0,0,0-.308-.04.405.405,0,0,0-.291.3l-.9,3.887-1.34-3.925A.4.4,0,0,0,222.5,330.329Z" transform="translate(-0.119 -0.217)" fill="#bc00d1"/>
  </g>
</svg>
