<svg xmlns="http://www.w3.org/2000/svg" width="18.719" height="18.066" viewBox="0 0 18.719 18.066">
  <g id="consent" transform="translate(-201.565 -231.049)">
    <path id="Path_130" data-name="Path 130" d="M207.131,264.043h3.7c.094,0,.17-.129.17-.288s-.076-.288-.17-.288h-3.7c-.094,0-.17.129-.17.288S207.037,264.043,207.131,264.043Z" transform="translate(-3.439 -20.659)" fill="#2056ed"/>
    <path id="Path_131" data-name="Path 131" d="M213.508,268.525h-6.259a.288.288,0,1,0,0,.576h6.259a.288.288,0,1,0,0-.576Z" transform="translate(-3.439 -23.882)" fill="#2056ed"/>
    <path id="Path_132" data-name="Path 132" d="M213.508,273.583h-6.259a.288.288,0,1,0,0,.576h6.259a.288.288,0,1,0,0-.576Z" transform="translate(-3.439 -27.105)" fill="#2056ed"/>
    <path id="Path_133" data-name="Path 133" d="M213.572,231.049a6.821,6.821,0,0,0-.692.036H201.868a.3.3,0,0,0-.3.3v17.424a.3.3,0,0,0,.3.3h12.063a.3.3,0,0,0,.3-.3v-4.373a6.711,6.711,0,0,0-.662-13.389Zm.056,17.46H202.171V231.691h8.552a6.707,6.707,0,0,0,2.85,12.781l.056,0Zm.541-4.725c-.18.018-.363.026-.547.028l-.051,0a6.032,6.032,0,0,1-4.219-1.717,3.751,3.751,0,0,1,3.617-3.287H214.3a3.75,3.75,0,0,1,3.6,3.174A6.031,6.031,0,0,1,214.17,243.784Zm-2.918-7.89a2.388,2.388,0,1,1,2.388,2.429A2.388,2.388,0,0,1,211.252,235.894Zm5.988,3.589a4.138,4.138,0,0,0-1.975-1.151,2.966,2.966,0,0,0,1.267-2.438,2.9,2.9,0,1,0-5.794-.082c0,.027,0,.054,0,.082A2.964,2.964,0,0,0,212,238.332a4.139,4.139,0,0,0-1.974,1.151,4.326,4.326,0,0,0-1.125,2.133,6.064,6.064,0,0,1,4.043-9.876,6.122,6.122,0,0,1,.625-.032,6.049,6.049,0,0,1,4.765,9.781A4.322,4.322,0,0,0,217.24,239.483Z" fill="#2056ed"/>
  </g>
</svg>
