<svg xmlns="http://www.w3.org/2000/svg" width="14.703" height="20.962" viewBox="0 0 14.703 20.962">
  <g id="drug" transform="translate(-22.44 -4.75)">
    <path id="Path_148" data-name="Path 148" d="M42.407,62.257V61.24h1.017a.31.31,0,0,0,.31-.31V59.161a.31.31,0,0,0-.31-.31H42.407V57.835a.31.31,0,0,0-.31-.31H40.328a.31.31,0,0,0-.31.31v1.017H39a.31.31,0,0,0-.31.31V60.93a.31.31,0,0,0,.31.31h1.017v1.017a.31.31,0,0,0,.31.31H42.1A.31.31,0,0,0,42.407,62.257Zm-.619-1.327v1.017h-1.15V60.93a.31.31,0,0,0-.31-.31H39.311v-1.15h1.017a.31.31,0,0,0,.31-.31V58.144h1.15v1.017a.31.31,0,0,0,.31.31h1.017v1.15H42.1a.31.31,0,0,0-.31.31Z" transform="translate(-13.377 -43.439)" fill="#2056ed"/>
    <path id="Path_149" data-name="Path 149" d="M37.143,21.378a4.34,4.34,0,0,0-3.913-4.313V10.832a2.079,2.079,0,0,0-.518-1.374L30.477,6.919V5.06a.31.31,0,0,0-.31-.31H25.5a.31.31,0,0,0-.31.31V6.918l-2.235,2.54a2.08,2.08,0,0,0-.519,1.374V25.4a.31.31,0,0,0,.31.31H32.921l.038,0A4.338,4.338,0,0,0,37.143,21.378Zm-7.168,2.4a3.711,3.711,0,0,1,5.23-5.231Zm-6.916-10.4h9.552v3.67a4.341,4.341,0,0,0-3.852,2.786h-5.7Zm2.755-8.01h4.044V6.725H25.814Zm-2.39,4.5,2.22-2.522h4.383l2.221,2.522a1.46,1.46,0,0,1,.363.965V12.76H23.059V10.832a1.461,1.461,0,0,1,.364-.965Zm-.364,15.226V20.455h5.516a4.328,4.328,0,0,0,2,4.638Zm9.75,0a3.7,3.7,0,0,1-2.4-.881l5.23-5.231a3.711,3.711,0,0,1-2.834,6.112Z" fill="#2056ed"/>
  </g>
</svg>
