<svg xmlns="http://www.w3.org/2000/svg" width="18.719" height="18.066" viewBox="0 0 18.719 18.066">
  <g id="first-emar" transform="translate(-124.125 -231.049)">
    <path id="Path_134" data-name="Path 134" d="M129.691,264.043h3.7c.094,0,.17-.129.17-.288s-.076-.288-.17-.288h-3.7c-.094,0-.17.129-.17.288S129.6,264.043,129.691,264.043Z" transform="translate(-3.439 -20.659)" fill="#0baa50"/>
    <path id="Path_135" data-name="Path 135" d="M136.068,268.525h-6.259a.288.288,0,1,0,0,.576h6.259a.288.288,0,0,0,0-.576Z" transform="translate(-3.439 -23.882)" fill="#0baa50"/>
    <path id="Path_136" data-name="Path 136" d="M136.068,273.583h-6.259a.288.288,0,1,0,0,.576h6.259a.288.288,0,0,0,0-.576Z" transform="translate(-3.439 -27.105)" fill="#0baa50"/>
    <path id="Path_137" data-name="Path 137" d="M136.132,231.049a6.82,6.82,0,0,0-.692.036H124.428a.3.3,0,0,0-.3.3v17.424a.3.3,0,0,0,.3.3h12.064a.3.3,0,0,0,.3-.3v-4.373a6.711,6.711,0,0,0-.662-13.389Zm.056,17.46H124.731V231.691h8.552a6.707,6.707,0,0,0,2.85,12.781l.056,0Zm-.056-4.694a6.054,6.054,0,1,1,6.053-6.054A6.054,6.054,0,0,1,136.132,243.814Z" transform="translate(0)" fill="#0baa50"/>
    <path id="Path_138" data-name="Path 138" d="M153.815,241.8H152.1a.1.1,0,0,1-.1-.1v-1.711a.643.643,0,0,0-.643-.642H150.15a.643.643,0,0,0-.643.642v1.711a.1.1,0,0,1-.1.1h-1.711a.643.643,0,0,0-.643.643v1.21a.643.643,0,0,0,.643.643H149.4a.1.1,0,0,1,.1.1V246.1a.643.643,0,0,0,.643.643h1.209A.643.643,0,0,0,152,246.1v-1.711a.1.1,0,0,1,.1-.1h1.711a.643.643,0,0,0,.642-.643v-1.21A.643.643,0,0,0,153.815,241.8Zm.1,1.852a.1.1,0,0,1-.1.1H152.1a.647.647,0,0,0-.646.646V246.1a.1.1,0,0,1-.1.1H150.15a.1.1,0,0,1-.1-.1v-1.711a.647.647,0,0,0-.646-.646h-1.711a.1.1,0,0,1-.1-.1v-1.21a.1.1,0,0,1,.1-.1H149.4a.647.647,0,0,0,.646-.646v-1.711a.1.1,0,0,1,.1-.1h1.209a.1.1,0,0,1,.1.1v1.711a.647.647,0,0,0,.646.646h1.711a.1.1,0,0,1,.1.1Z" transform="translate(-14.61 -5.284)" fill="#0baa50"/>
  </g>
</svg>
