<svg xmlns="http://www.w3.org/2000/svg" width="19.718" height="19.066" viewBox="0 0 19.718 19.066">
  <path id="first-check" d="M-4569.7-4766.935a.3.3,0,0,1-.3-.3v-17.424a.3.3,0,0,1,.3-.3h11.012a6.9,6.9,0,0,1,.693-.036,6.713,6.713,0,0,1,6.712,6.712,6.713,6.713,0,0,1-6.05,6.678v4.374a.3.3,0,0,1-.3.3Zm.3-.6h11.458v-4.041c-.021,0-.039,0-.057,0a6.712,6.712,0,0,1-6.711-6.713,6.706,6.706,0,0,1,3.862-6.069h-8.551Zm5.347-10.748a6.054,6.054,0,0,0,6.054,6.054,6.054,6.054,0,0,0,6.054-6.054,6.054,6.054,0,0,0-6.054-6.055A6.054,6.054,0,0,0-4564.046-4778.288Zm-3.708,9.292a.288.288,0,0,1-.289-.288.288.288,0,0,1,.289-.288h6.259a.287.287,0,0,1,.288.288.287.287,0,0,1-.288.288Zm0-1.835a.288.288,0,0,1-.289-.288.289.289,0,0,1,.289-.288h6.259a.288.288,0,0,1,.288.288.287.287,0,0,1-.288.288Zm-.119-1.835c-.094,0-.169-.128-.169-.288s.076-.287.169-.287h3.7c.093,0,.169.128.169.287s-.076.288-.169.288Zm8.983-2.67-2-1.888a.558.558,0,0,1-.063-.7.39.39,0,0,1,.6-.073l1.669,1.573,2.974-4.275a.391.391,0,0,1,.6-.074.557.557,0,0,1,.063.7l-3.23,4.643-.014.021a.409.409,0,0,1-.334.185A.4.4,0,0,1-4558.891-4775.335Z" transform="translate(4570.499 4785.5)" fill="#ff7885" stroke="rgba(0,0,0,0)" stroke-miterlimit="10" stroke-width="1"/>
</svg>
