<svg xmlns="http://www.w3.org/2000/svg" width="17.005" height="17" viewBox="0 0 17.005 17">
  <g id="x-ray" transform="translate(-310.855 -326.625)">
    <path id="Path_163" data-name="Path 163" d="M312.491,333.656v2.384a.334.334,0,0,0,.328.335l2.838.04a1.594,1.594,0,0,0,1.554,1.262,1.7,1.7,0,0,0,.267-.022,2.715,2.715,0,0,0-.264-5.3h0a1.6,1.6,0,0,0-1.448.932l-2.946.042A.336.336,0,0,0,312.491,333.656Zm5.611.546a.931.931,0,0,1-.394.531.329.329,0,0,0-.145.213.339.339,0,0,0,.049.253.365.365,0,0,0,.1.1.911.911,0,0,1,.434.783.929.929,0,1,1-1.858,0,.337.337,0,0,0-.328-.33l-2.8-.039,0-1.722,2.848-.041a.338.338,0,0,0,.316-.244.925.925,0,1,1,1.782.5Z" transform="translate(0.031 0.11)" fill="#ff6f00"/>
    <path id="Path_164" data-name="Path 164" d="M320.616,337.744a1.612,1.612,0,0,0,.31.031,1.588,1.588,0,0,0,1.463-.967l2.794.508a.331.331,0,0,0,.385-.264l.459-2.339a.337.337,0,0,0-.259-.388l-2.883-.607a1.593,1.593,0,0,0-3.111.691,1.572,1.572,0,0,0,.193.5,1.593,1.593,0,0,0,.65,2.838Zm.158-2.866a.323.323,0,0,0-.073-.112.926.926,0,0,1,.618-1.6h.021a.927.927,0,0,1,.922.85.336.336,0,0,0,.263.3l2.786.586-.332,1.694-2.76-.5a.331.331,0,0,0-.384.263.929.929,0,1,1-1.822-.36l.011-.058a.93.93,0,0,1,.566-.628A.337.337,0,0,0,320.774,334.878Z" transform="translate(0.163 0.113)" fill="#ff6f00"/>
    <path id="Path_165" data-name="Path 165" d="M327.524,326.625H311.191a.336.336,0,0,0-.336.335v16.327a.337.337,0,0,0,.336.337h16.332a.337.337,0,0,0,.336-.337V326.955A.336.336,0,0,0,327.524,326.625Zm-.332.665,0,15.666H311.525V327.29Z" fill="#ff6f00"/>
    <path id="Path_166" data-name="Path 166" d="M312.507,330.932a.319.319,0,0,0,.319-.319v-2.025h2.016a.323.323,0,0,0,.369-.261.32.32,0,0,0-.259-.37.255.255,0,0,0-.1,0h-2.348a.32.32,0,0,0-.32.319v2.347A.318.318,0,0,0,312.507,330.932Z" transform="translate(0.026 0.025)" fill="#ff6f00"/>
    <path id="Path_167" data-name="Path 167" d="M323.516,328.563v.025h2.114v2.042a.317.317,0,0,0,.314.265.347.347,0,0,0,.056,0,.324.324,0,0,0,.262-.275v-2.345a.32.32,0,0,0-.32-.319h-2.356a.323.323,0,0,0-.26.371A.319.319,0,0,0,323.516,328.563Z" transform="translate(0.239 0.025)" fill="#ff6f00"/>
    <path id="Path_168" data-name="Path 168" d="M325.944,339.05a.319.319,0,0,0-.319.318v2.03h-2.039a.319.319,0,0,0-.261.37.325.325,0,0,0,.274.261h2.345a.319.319,0,0,0,.32-.32v-2.346A.321.321,0,0,0,325.944,339.05Z" transform="translate(0.239 0.238)" fill="#ff6f00"/>
    <path id="Path_169" data-name="Path 169" d="M314.851,341.393h-2.028v-2.042a.324.324,0,0,0-.131-.208.312.312,0,0,0-.238-.053.322.322,0,0,0-.261.274v2.345a.321.321,0,0,0,.315.316h2.359a.322.322,0,0,0,.261-.371A.325.325,0,0,0,314.851,341.393Z" transform="translate(0.026 0.239)" fill="#ff6f00"/>
  </g>
</svg>
