<svg xmlns="http://www.w3.org/2000/svg" width="17.912" height="17.91" viewBox="0 0 17.912 17.91">
  <path id="sticker" d="M253.729,333.332l-9.248-9.249a.442.442,0,0,0-.331-.122h0a8.971,8.971,0,1,0,9.7,9.7A.415.415,0,0,0,253.729,333.332Zm-1.269-.084-.44-.037a8.1,8.1,0,0,1-7.419-7.42l-.037-.441Zm-9.143.858H241.29a.117.117,0,0,1-.116-.117v-1.434a.116.116,0,0,1,.116-.117h2.027a.766.766,0,0,0,.766-.766v-2.027a.118.118,0,0,1,.117-.117h.7l0,0c.118.208.243.412.378.612a10.718,10.718,0,0,0,3.387,2.909h0v.945a.118.118,0,0,1-.117.117h-2.027a.766.766,0,0,0-.766.765V336.9a.117.117,0,0,1-.117.116H244.2a.117.117,0,0,1-.117-.116v-2.028A.766.766,0,0,0,243.317,334.106Zm9.613.16a8.134,8.134,0,1,1-9.384-9.383l.191-.033,0,.192a8.924,8.924,0,0,0,.834,3.841H244.2a.762.762,0,0,0-.762.762v2.027a.121.121,0,0,1-.122.121H241.29a.762.762,0,0,0-.762.762v1.434a.762.762,0,0,0,.762.762h2.027a.122.122,0,0,1,.122.121V336.9a.762.762,0,0,0,.762.762h1.433a.762.762,0,0,0,.762-.762v-2.028a.122.122,0,0,1,.122-.121h2.027a.762.762,0,0,0,.762-.762v-.63h0a8.113,8.113,0,0,0,3.31.719l.348-.005Z" transform="translate(-235.941 -323.961)" fill="#df0069"/>
</svg>
