<svg xmlns="http://www.w3.org/2000/svg" width="20.371" height="16.069" viewBox="0 0 20.371 16.069"><defs><style>.a{fill:#609fae;}</style></defs><path class="a" d="M211.89,238.241h-1.437v-8.785a.48.48,0,0,0-.48-.48h-4.415v-1.314a.566.566,0,0,0,.093-.054,2.5,2.5,0,0,0,0-4.325.911.911,0,0,0-1,0,2.5,2.5,0,0,0,0,4.325.684.684,0,0,0,.094.054v1.314h-5.116v-1.314a.615.615,0,0,0,.093-.054,2.5,2.5,0,0,0,0-4.325.91.91,0,0,0-1,0,2.5,2.5,0,0,0,0,4.325.574.574,0,0,0,.094.054v1.314H194.4a.48.48,0,0,0-.48.48v8.785h-1.437a.48.48,0,1,0,0,.96H211.89a.48.48,0,0,0,0-.96Zm-7.729-12.8a2.022,2.022,0,0,1,.952-1.617h.074a2.021,2.021,0,0,1,.953,1.618,1.941,1.941,0,0,1-1.026,1.617A2.026,2.026,0,0,1,204.161,225.446Zm-5.932,0a2.019,2.019,0,0,1,.952-1.617h.073a2.022,2.022,0,0,1,.954,1.618,1.944,1.944,0,0,1-1.026,1.617A2.024,2.024,0,0,1,198.229,225.446Zm11.264,12.8H194.876v-4.6l.359-.093c.229-.059.453-.129.678-.2a7.529,7.529,0,0,1,2.381-.435,9.8,9.8,0,0,1,3.593.819,13.571,13.571,0,0,0,5.051.889,15.086,15.086,0,0,0,2.555-.685Zm0-5.3-.359.093c-.208.053-.416.115-.626.177a8.572,8.572,0,0,1-2.582.454,9.953,9.953,0,0,1-3.683-.818,10.28,10.28,0,0,0-3.764-.89,8.984,8.984,0,0,0-2.325.377c-.223.056-.451.115-.689.171l-.588.137v-2.7h14.617Z" transform="translate(-191.999 -223.132)"/></svg>