<svg xmlns="http://www.w3.org/2000/svg" width="18.959" height="19" viewBox="0 0 18.959 19"><defs><style>.a{fill:#609fae;}</style></defs><path class="a" d="M14.86.26V.85a.26.26,0,0,0,.26.26h1.947L14.216,3.975a5.036,5.036,0,0,0-6.169-.082,4.956,4.956,0,0,0-3.03-1.028,5.026,5.026,0,0,0-.548,10.021v3.126H3.208a.246.246,0,0,0-.247.247v.631a.246.246,0,0,0,.247.247H4.469v1.618A.246.246,0,0,0,4.716,19h.631a.246.246,0,0,0,.247-.247V17.136H6.854a.246.246,0,0,0,.247-.247v-.631a.246.246,0,0,0-.247-.247H5.579V12.886A4.908,4.908,0,0,0,8.047,11.9,5.021,5.021,0,0,0,15,4.757l2.851-2.851V3.838a.26.26,0,0,0,.26.26H18.7a.26.26,0,0,0,.26-.26V.315A.31.31,0,0,0,18.644,0H15.12A.26.26,0,0,0,14.86.26Zm-6.813,10.1a3.919,3.919,0,0,1-.891-2.481A3.87,3.87,0,0,1,8.047,5.4a3.919,3.919,0,0,1,.891,2.481A3.842,3.842,0,0,1,8.047,10.364ZM1.11,7.9A3.914,3.914,0,0,1,5.017,3.989a3.829,3.829,0,0,1,2.207.685,5.01,5.01,0,0,0,0,6.457A3.9,3.9,0,0,1,1.11,7.9ZM11.227,11.8a3.881,3.881,0,0,1-2.358-.685,5.01,5.01,0,0,0,0-6.457A3.913,3.913,0,1,1,11.227,11.8Z"/></svg>