<svg xmlns="http://www.w3.org/2000/svg" width="19.574" height="14.481" viewBox="0 0 19.574 14.481"><defs><style>.a{fill:#609fae;}</style></defs><g transform="translate(-150.129 -224.21)"><path class="a" d="M167.869,224.214H151.963a1.717,1.717,0,0,0-1.834,1.568v11.336a1.719,1.719,0,0,0,1.834,1.568h15.91a1.72,1.72,0,0,0,1.83-1.568V225.782A1.718,1.718,0,0,0,167.869,224.214Zm.84,12.9a.788.788,0,0,1-.836.715l-15.907,0a.787.787,0,0,1-.837-.715V225.782a.786.786,0,0,1,.837-.714h15.906a.786.786,0,0,1,.837.713Z"/><path class="a" d="M165.994,230.17H161.4a.394.394,0,1,0,0,.787h4.6a.394.394,0,1,0,0-.787Z"/><path class="a" d="M165.979,228.4H161.4a.394.394,0,1,0,0,.787h4.6a.394.394,0,1,0-.015-.787Z"/><path class="a" d="M165.994,231.944H161.4a.393.393,0,1,0,0,.786h4.6a.393.393,0,1,0,0-.786Z"/><path class="a" d="M164.24,233.717H161.4a.394.394,0,1,0,0,.787h2.842a.394.394,0,1,0,0-.787Z"/><path class="a" d="M158.444,230.121h-1.212v-1.212a.777.777,0,0,0-.775-.776h-1.1a.777.777,0,0,0-.775.776v1.212h-1.211a.777.777,0,0,0-.776.775V232a.777.777,0,0,0,.776.775h1.211v1.211a.777.777,0,0,0,.775.776h1.1a.777.777,0,0,0,.775-.776v-1.211h1.212a.776.776,0,0,0,.775-.775v-1.1A.776.776,0,0,0,158.444,230.121Zm.075,1.878a.075.075,0,0,1-.075.075h-1.912v1.911a.075.075,0,0,1-.075.076h-1.1a.075.075,0,0,1-.075-.076v-1.911h-1.911a.075.075,0,0,1-.076-.075v-1.1a.075.075,0,0,1,.076-.075h1.911v-1.912a.075.075,0,0,1,.075-.076h1.1a.075.075,0,0,1,.075.076v1.912h1.912a.075.075,0,0,1,.075.075Z"/></g></svg>