<svg xmlns="http://www.w3.org/2000/svg" width="15.319" height="19" viewBox="0 0 15.319 19"><defs><style>.a{fill:#609fae;}</style></defs><g transform="translate(-226.374 -223.943)"><path class="a" d="M240.318,227.235a7.644,7.644,0,0,0-12.568,0,7.645,7.645,0,0,0-.891,7.045,5.98,5.98,0,0,0,1.105,1.824l5.662,6.65a.538.538,0,0,0,.817,0l5.659-6.648a5.99,5.99,0,0,0,1.105-1.822A7.647,7.647,0,0,0,240.318,227.235Zm-6.284-2.218a6.477,6.477,0,0,1,5.4,2.828,6.58,6.58,0,0,1,.768,6.063h0a4.962,4.962,0,0,1-.917,1.5l-5.252,6.17-5.255-6.172a4.972,4.972,0,0,1-.916-1.5,6.581,6.581,0,0,1,.768-6.06A6.481,6.481,0,0,1,234.034,225.018Z"/><path class="a" d="M233.407,234.592a3.636,3.636,0,1,0-3.637-3.636A3.64,3.64,0,0,0,233.407,234.592Zm0-6.2a2.563,2.563,0,1,1-2.564,2.564A2.566,2.566,0,0,1,233.407,228.392Z" transform="translate(0.627 0.623)"/></g></svg>