<svg xmlns="http://www.w3.org/2000/svg" width="17.436" height="16" viewBox="0 0 17.436 16"><defs><style>.a{fill:#609fae;}</style></defs><path class="a" d="M135.207,223.843h-6.6a1.718,1.718,0,0,0-1.568,1.834v.146h-2.7a1.714,1.714,0,0,0-1.562,1.622h-1.857a1.718,1.718,0,0,0-1.568,1.834v5.128a1.717,1.717,0,0,0,1.568,1.834h1.857a1.714,1.714,0,0,0,1.562,1.622h2.7v.146a1.718,1.718,0,0,0,1.568,1.834h6.6a1.719,1.719,0,0,0,1.568-1.834V225.673A1.719,1.719,0,0,0,135.207,223.843Zm-15,10.561v-5.128a.786.786,0,0,1,.713-.837h1.852v6.8h-1.851A.786.786,0,0,1,120.2,234.4Zm6.837,2.459h-2.7a.786.786,0,0,1-.714-.837v-8.372a.787.787,0,0,1,.713-.837h2.705Zm8.168,1.98h-6.6a.786.786,0,0,1-.714-.837V225.674a.786.786,0,0,1,.713-.837h6.6a.788.788,0,0,1,.715.836l0,12.333A.788.788,0,0,1,135.207,238.843Z" transform="translate(-119.344 -223.843)"/></svg>