<svg xmlns="http://www.w3.org/2000/svg" width="16.007" height="15" viewBox="0 0 16.007 15"><defs><style>.a{fill:#919a9f;}</style></defs><g transform="translate(-1263 -353)"><path class="a" d="M131.282,129.58c0,.013,0,.026,0,.039.009.032.021.063.031.1s.024.072.036.108q.091.281.2.555l.041.1c.018.042.032.084.05.125a.4.4,0,0,0,.029.039,7.5,7.5,0,0,0,1.072,1.7c.006.008.007.018.014.026a7.575,7.575,0,0,0,.729.748.544.544,0,0,0,.05.029,7.509,7.509,0,0,0,1.641,1.1.363.363,0,0,0,.042.032c.1.047.2.087.294.13l.085.038c.2.082.392.157.593.222h.016a7.482,7.482,0,0,0,2,.341c.015,0,.029.01.044.011h.155c.029,0,.056,0,.084,0,.008,0,.014,0,.022,0a7.573,7.573,0,0,0,.783-.038.5.5,0,0,0-.05-1l-.053,0a6.727,6.727,0,0,1-.769.034,6.462,6.462,0,0,1-2.44-.5l-.054-.024a6.522,6.522,0,0,1-1.889-1.246c-.135-.127-.263-.26-.386-.4a6.5,6.5,0,0,1-1.139-1.771c-.011-.025-.021-.05-.031-.075q-.1-.24-.179-.489c-.01-.031-.021-.062-.031-.093a6.477,6.477,0,0,1-.285-1.9c0-.2.012-.4.03-.592,0-.05.01-.1.015-.15a6.494,6.494,0,0,1,2.308-4.259l.026-.022a6.492,6.492,0,0,1,2.171-1.178l.068-.02c.165-.05.332-.093.5-.13l.124-.026a6.487,6.487,0,0,1,7.6,4.991l-1.119-.565a.5.5,0,1,0-.447.9l2,1a.493.493,0,0,0,.219.05l.022,0,.043-.012a.484.484,0,0,0,.15-.041.491.491,0,0,0,.238-.222l1-2a.5.5,0,1,0-.9-.447l-.342.683a7.345,7.345,0,0,0-.582-1.45.387.387,0,0,0-.012-.041,7.446,7.446,0,0,0-.556-.886c-.013-.017-.032-.024-.046-.039a7.589,7.589,0,0,0-1.35-1.392.473.473,0,0,0-.058-.067,7.4,7.4,0,0,0-.866-.587.5.5,0,0,0-.118-.05,7.5,7.5,0,0,0-1.773-.71.454.454,0,0,0-.045-.021,7.481,7.481,0,0,0-1.031-.18h-.05a7.225,7.225,0,0,0-.727-.038,7.493,7.493,0,0,0-1.216.108h-.006a.457.457,0,0,0-.087.008c-.043.008-.086.019-.129.028s-.11.023-.165.035q-.284.062-.561.145l-.087.025-.073.021c-.011,0-.019.012-.029.017a7.474,7.474,0,0,0-1.823.89c-.007,0-.015.005-.021.01-.192.129-.376.272-.556.42l-.034.029c-.078.065-.158.128-.232.2a.433.433,0,0,0-.037.05,7.555,7.555,0,0,0-1.256,1.488.53.53,0,0,0-.05.062,7.524,7.524,0,0,0-.491.923.328.328,0,0,0-.008.033,7.424,7.424,0,0,0-.55,1.924.456.456,0,0,0-.016.05c-.009.061-.012.122-.02.183s-.013.12-.019.18c-.021.226-.034.453-.034.68v.039A7.476,7.476,0,0,0,131.282,129.58Z" transform="translate(1132.014 232.977)"/><path class="a" d="M232.5,175a.5.5,0,0,0-.5.5v4a.5.5,0,0,0,.147.354l2,2a.5.5,0,0,0,.707-.707L233,179.294V175.5A.5.5,0,0,0,232.5,175Z" transform="translate(1037.315 181.437)"/></g></svg>