<svg version="1.1" id="Layer_1" width="15" height="15" xmlns="http://www.w3.org/2000/svg" xmlns:xlink="http://www.w3.org/1999/xlink" x="0px" y="0px"
	 viewBox="0 0 15.3 15" style="enable-background:new 0 0 15.3 15;" xml:space="preserve">
<style type="text/css">
	.st1{fill:#FFFFFF;}
</style>
<g transform="translate(-1239.386 -266.217)">
	<path class="st1" d="M1245.8,272.8l0.2-2l-2.6-0.2c2.1-1.9,5.5-1.9,7.6,0.1c2.1,2,2,5.2-0.1,7.1c-2.1,1.9-5.5,1.9-7.6-0.1
		c-0.3-0.3-0.5-0.6-0.7-0.9l-2.2,0.5c1.8,3.5,6.3,4.9,10.1,3.2c3.7-1.7,5.3-5.9,3.5-9.4c-1.8-3.5-6.3-4.9-10.1-3.2
		c-0.8,0.3-1.5,0.8-2,1.4l0.3-2.8l-2.1-0.2l-0.6,6L1245.8,272.8z"/>
</g>
</svg>
