<svg xmlns="http://www.w3.org/2000/svg" width="17.217" height="17.793" viewBox="0 0 17.217 17.793"><defs><style>.a{fill:#919a9f;}</style></defs><g transform="translate(200.412 -115.84)"><path class="a" d="M-184.614,126.35v-7.5a1.538,1.538,0,0,0-1.508-1.559h-2.041v-1.013a.444.444,0,0,0-.443-.443.444.444,0,0,0-.443.443V117.3h-6.214v-1.014a.444.444,0,0,0-.443-.443.444.444,0,0,0-.444.443V117.3H-198.9a1.538,1.538,0,0,0-1.507,1.557v11.753a1.538,1.538,0,0,0,1.509,1.558h8.663a3.92,3.92,0,0,0,3.053,1.469,4.074,4.074,0,0,0,3.992-4.127A4.172,4.172,0,0,0-184.614,126.35Zm-5.04.956a3.2,3.2,0,0,1,2.243-1.02l.11,0a3.223,3.223,0,0,1,3.216,3.111c0,.036,0,.072,0,.11a3.173,3.173,0,0,1-3.109,3.216h0l-.109,0a3.225,3.225,0,0,1-3.216-3.111A3.2,3.2,0,0,1-189.654,127.307Zm4.154-1.541a3.885,3.885,0,0,0-1.689-.39,4.073,4.073,0,0,0-3.992,4.128,4.227,4.227,0,0,0,.38,1.748h-8.1a.637.637,0,0,1-.623-.646V121.88H-185.5Zm-10.652-7a.824.824,0,0,0-.759.792.817.817,0,0,0,.222.59.819.819,0,0,0,.573.261h.028a.824.824,0,0,0,.822-.794v-1.41h6.214v.561a.809.809,0,0,0-.5.219.816.816,0,0,0-.261.573.824.824,0,0,0,.8.851h.027a.825.825,0,0,0,.823-.794v-1.41h2.041a.638.638,0,0,1,.624.646v2.116h-14.026v-2.116a.637.637,0,0,1,.621-.645h2.751Z" transform="translate(0 0)"/><path class="a" d="M-186.877,133.075a.452.452,0,0,0,.323.138h0a.459.459,0,0,0,.327-.138l2.62-2.644a.47.47,0,0,0,0-.658.458.458,0,0,0-.324-.138h0a.458.458,0,0,0-.323.132l-2.3,2.32-.8-.8a.461.461,0,0,0-.654,0,.468.468,0,0,0,0,.658Zm2.681-3.242Z" transform="translate(-1.455 -1.635)"/></g></svg>