<svg xmlns="http://www.w3.org/2000/svg" width="22.151" height="13.975" viewBox="0 0 22.151 13.975"><defs><style>.a{fill:#919a9f;}</style></defs><g transform="translate(-171.774 -186.186)"><path class="a" d="M193.821,192.85c-.2-.271-4.932-6.664-10.969-6.664-6.075,0-10.924,6.6-10.973,6.664a.545.545,0,0,0,0,.644c.2.273,4.931,6.665,10.968,6.665,5.853,0,10.465-5.984,10.973-6.667A.546.546,0,0,0,193.821,192.85Zm-10.451,6.2-.176.013.006.011h-.349c-4.6,0-8.618-4.416-9.738-5.77l-.1-.125.1-.127c1.116-1.353,5.118-5.769,9.738-5.769,4.482,0,8.3,4.035,9.738,5.769l.1.127-.1.125C191.236,194.931,187.626,198.754,183.37,199.048Z"/><path class="a" d="M182.361,188.714a4.261,4.261,0,1,0,4.261,4.262A4.266,4.266,0,0,0,182.361,188.714Zm0,7.432a3.171,3.171,0,1,1,3.171-3.17A3.175,3.175,0,0,1,182.361,196.146Z" transform="translate(0.488 0.195)"/></g></svg>