<svg xmlns="http://www.w3.org/2000/svg" width="19.87" height="19.87" viewBox="0 0 19.87 19.87"><defs><style>.a{fill:#2d2d30;}</style></defs><path class="a" d="M.662,5.751a.662.662,0,0,0,.662-.662V2.264L5.591,6.529a.662.662,0,0,0,.937-.937L2.261,1.327H5.086A.662.662,0,0,0,5.086,0H.662A.662.662,0,0,0,0,.664V5.088A.662.662,0,0,0,.662,5.751Z" transform="translate(0 -0.002)"/><path class="a" d="M143.945,138.857a.662.662,0,0,0-.662.662v2.824l-4.4-4.4a.662.662,0,0,0-.937.937l4.4,4.4h-2.824a.662.662,0,1,0,0,1.325h4.424a.662.662,0,0,0,.662-.662V139.52A.663.663,0,0,0,143.945,138.857Z" transform="translate(-124.738 -124.736)"/><path class="a" d="M5.727,137.946l-4.4,4.4v-2.824a.662.662,0,0,0-1.325,0v4.424a.662.662,0,0,0,.662.662H5.091a.662.662,0,1,0,0-1.325H2.267l4.4-4.4a.662.662,0,0,0-.937-.937Z" transform="translate(-0.005 -124.736)"/><path class="a" d="M145.308,0h-4.424a.662.662,0,1,0,0,1.325h2.825l-4.266,4.266a.662.662,0,0,0,.937.937l4.266-4.266V5.088a.662.662,0,1,0,1.325,0V.664A.663.663,0,0,0,145.308,0Z" transform="translate(-126.1 -0.002)"/></svg>