<?xml version="1.0" encoding="utf-8"?>
<!-- Generator: Adobe Illustrator 23.0.3, SVG Export Plug-In . SVG Version: 6.00 Build 0)  -->
<svg version="1.1" id="Layer_1" xmlns="http://www.w3.org/2000/svg" xmlns:xlink="http://www.w3.org/1999/xlink" x="0px" y="0px"
	 viewBox="0 0 15.9 14.3" style="enable-background:new 0 0 15.9 14.3;" xml:space="preserve">
<style type="text/css">
	.st0{fill-rule:evenodd;clip-rule:evenodd;fill:#FFFFFF;}
</style>
<path class="st0" d="M3.4,0c1.5,0,2.9,1,3.3,2.5h6.9v1.7H6.6C6.2,6,4.3,7.1,2.5,6.6s-2.9-2.3-2.4-4.1C0.5,1,1.8,0,3.4,0z M3.4,5.1
	c0.9,0,1.7-0.8,1.7-1.7S4.3,1.7,3.4,1.7c-0.9,0-1.7,0.8-1.7,1.7C1.7,4.3,2.4,5.1,3.4,5.1C3.4,5.1,3.4,5.1,3.4,5.1z"/>
<path class="st0" d="M11.8,14.3c-1.5,0-2.9-1-3.3-2.5H1.7v-1.7h6.9c0.5-1.8,2.3-2.9,4.1-2.4c1.8,0.5,2.9,2.3,2.4,4.1
	C14.7,13.3,13.3,14.3,11.8,14.3L11.8,14.3z M11.8,12.6c0.9,0,1.7-0.8,1.7-1.7c0-0.9-0.8-1.7-1.7-1.7c-0.9,0-1.7,0.8-1.7,1.7l0,0
	C10.1,11.9,10.9,12.6,11.8,12.6z"/>
</svg>
