<svg xmlns="http://www.w3.org/2000/svg" width="14.902" height="14.902" viewBox="0 0 14.902 14.902"><defs><style>.a{fill:#919a9f;}</style></defs><path class="a" d="M149.3,85.461a.466.466,0,0,1,.466.466v1.49a.466.466,0,0,0,.705.4l2.555-1.533V92.09l-2.555-1.533a.463.463,0,0,0-.214-.061l2.546,2.546.449.269a.466.466,0,0,0,.705-.4V85.461a.466.466,0,0,0-.705-.4L150.7,86.595v-.668a1.4,1.4,0,0,0-1.4-1.4H144.3l.931.931Z" transform="translate(-139.525 -81.736)"/><path class="a" d="M14.9,14.244.659,0,0,.659,2.136,2.794H1.4A1.4,1.4,0,0,0,0,4.191v6.52a1.4,1.4,0,0,0,1.4,1.4H9.78a1.385,1.385,0,0,0,1.11-.56L14.244,14.9ZM9.78,11.177H1.4a.466.466,0,0,1-.466-.466V4.191A.466.466,0,0,1,1.4,3.726h1.67l7.146,7.146A.463.463,0,0,1,9.78,11.177Z" transform="translate(0)"/></svg>