<svg xmlns="http://www.w3.org/2000/svg" width="15.178" height="12.419" viewBox="0 0 15.178 12.419"><defs><style>.a{fill:#2d2d30;}</style></defs><g transform="translate(0 0)"><g transform="translate(0 0)"><g transform="translate(0 0)"><path class="a" d="M6.691,42.693a.344.344,0,0,0-.373.066L2.765,46.114H.345A.345.345,0,0,0,0,46.459v4.829a.345.345,0,0,0,.345.345h2.42l3.553,3.355a.344.344,0,0,0,.237.094.339.339,0,0,0,.136-.028.344.344,0,0,0,.209-.317V43.009A.344.344,0,0,0,6.691,42.693ZM6.209,53.937l-3.071-2.9a.345.345,0,0,0-.237-.094H.69V46.8H2.9a.345.345,0,0,0,.237-.094l3.071-2.9Z" transform="translate(0 -42.664)"/><path class="a" d="M355.682,42.732a.345.345,0,0,0-.4.559,6.882,6.882,0,0,1,0,11.17.345.345,0,1,0,.4.559,7.572,7.572,0,0,0,0-12.287Z" transform="translate(-343.65 -42.666)"/><path class="a" d="M298.192,106.724a.345.345,0,1,0-.367.584,4.131,4.131,0,0,1,0,7,.345.345,0,0,0,.367.584,4.821,4.821,0,0,0,0-8.173Z" transform="translate(-288.037 -104.601)"/><path class="a" d="M256.26,181.4a.345.345,0,1,0-.412.553,1.366,1.366,0,0,1,0,2.207.345.345,0,1,0,.412.553,2.056,2.056,0,0,0,0-3.313Z" transform="translate(-247.439 -176.85)"/></g></g></g></svg>