<?xml version="1.0" encoding="utf-8"?>
<!-- Generator: Adobe Illustrator 23.0.3, SVG Export Plug-In . SVG Version: 6.00 Build 0)  -->
<svg version="1.1" id="Capa_1" xmlns="http://www.w3.org/2000/svg" xmlns:xlink="http://www.w3.org/1999/xlink" x="0px" y="0px"
	 viewBox="0 0 28.6 18.2" style="enable-background:new 0 0 28.6 18.2;" xml:space="preserve">
<style type="text/css">
	.st0{fill:#919A9F;}
</style>
<g>
	<g>
		<path class="st0" d="M24.7,8c0.8-0.6,1.4-1.6,1.4-2.7c0-1.8-1.5-3.3-3.3-3.3c-1.8,0-3.3,1.5-3.3,3.3c0,1.1,0.5,2.1,1.4,2.7
			c-0.7,0.2-1.4,0.6-1.9,1.1c-0.8-0.7-1.7-1.1-2.6-1.4c1.2-0.7,2-2,2-3.5c0-2.3-1.9-4.1-4.1-4.1s-4.1,1.9-4.1,4.1
			c0,1.5,0.8,2.8,2,3.5c-1,0.3-1.9,0.8-2.6,1.4C9,8.6,8.3,8.2,7.6,8C8.4,7.4,9,6.4,9,5.3c0-1.8-1.5-3.3-3.3-3.3S2.5,3.5,2.5,5.3
			C2.5,6.4,3,7.4,3.9,8C1.6,8.8,0,10.9,0,13.4v0.4c0,0,0,0,0,0h6.9c0,0.3-0.1,0.6-0.1,1v0.4c0,1.7,1.3,3,3,3h8.8c1.7,0,3-1.3,3-3
			v-0.4c0-0.3,0-0.6-0.1-1h7c0,0,0,0,0,0v-0.4C28.6,10.9,27,8.8,24.7,8z M20.5,5.3C20.5,4,21.6,3,22.9,3s2.4,1.1,2.4,2.4
			c0,1.3-1,2.3-2.3,2.4c0,0,0,0,0,0s0,0,0,0C21.5,7.7,20.5,6.6,20.5,5.3z M11,4.1c0-1.8,1.4-3.2,3.2-3.2s3.2,1.4,3.2,3.2
			c0,1.7-1.4,3.1-3,3.2c-0.1,0-0.1,0-0.2,0s-0.1,0-0.2,0C12.4,7.3,11,5.9,11,4.1z M3.4,5.3C3.4,4,4.4,3,5.7,3S8.1,4,8.1,5.3
			c0,1.3-1,2.3-2.3,2.4c0,0,0,0,0,0s0,0,0,0C4.4,7.7,3.4,6.6,3.4,5.3z M7.1,12.9H0.9c0.3-2.4,2.3-4.3,4.8-4.3c0,0,0,0,0,0s0,0,0,0
			C6.9,8.6,8,9,8.8,9.7C8,10.6,7.4,11.7,7.1,12.9z M20.8,15.1c0,1.2-0.9,2.1-2.1,2.1H9.9c-1.2,0-2.1-0.9-2.1-2.1v-0.4
			c0-3.5,2.8-6.4,6.3-6.5c0.1,0,0.1,0,0.2,0s0.1,0,0.2,0c3.5,0.1,6.3,3,6.3,6.5V15.1z M21.4,12.9c-0.3-1.2-0.9-2.3-1.7-3.1
			c0.8-0.7,1.9-1.2,3.1-1.2c0,0,0,0,0,0s0,0,0,0c2.5,0,4.5,1.9,4.8,4.3H21.4z"/>
	</g>
</g>
</svg>
