<?xml version="1.0" encoding="utf-8"?>
<!-- Generator: Adobe Illustrator 23.0.3, SVG Export Plug-In . SVG Version: 6.00 Build 0)  -->
<svg version="1.1" id="Capa_1" xmlns="http://www.w3.org/2000/svg" xmlns:xlink="http://www.w3.org/1999/xlink" x="0px" y="0px"
	 viewBox="0 0 512 512" style="enable-background:new 0 0 512 512;" xml:space="preserve">
<style type="text/css">
	.st0{fill:#919A9F;}
</style>
<g>
	<g>
		<g>
			<rect x="170.7" y="426.7" class="st0" width="170.7" height="17.1"/>
		</g>
	</g>
	<g>
		<g>
			<rect x="170.7" y="460.8" class="st0" width="170.7" height="17.1"/>
		</g>
	</g>
	<g>
		<g>
			<path class="st0" d="M469.3,170.7h-76.8V8.5c0-4.7-3.8-8.5-8.5-8.5H179.2c-0.2,0-0.3,0.1-0.5,0.1c-0.8,0-1.5,0.2-2.3,0.5
				c-0.3,0.1-0.5,0.2-0.8,0.3c-1,0.4-1.8,1-2.6,1.7l-51.2,51.2c-0.7,0.7-1.3,1.6-1.7,2.5c-0.1,0.3-0.2,0.5-0.3,0.8
				c-0.2,0.7-0.4,1.4-0.4,2.2c0,0.2-0.1,0.3-0.1,0.5v110.9H42.7C19.1,170.7,0,189.8,0,213.3v136.5c0,23.6,19.1,42.6,42.7,42.7h76.8
				v110.9c0,4.7,3.8,8.5,8.5,8.5h256c4.7,0,8.5-3.8,8.5-8.5V392.5h76.8c23.6,0,42.6-19.1,42.7-42.7V213.3
				C512,189.8,492.9,170.7,469.3,170.7z M170.7,29.1v22.1h-22.1L170.7,29.1z M136.5,68.3h42.7c4.7,0,8.5-3.8,8.5-8.5V17.1h187.7
				v153.6H136.5V68.3z M375.5,494.9H136.5V341.3h238.9V494.9z M494.9,349.9c0,14.1-11.5,25.6-25.6,25.6h-76.8v-34.1h25.6
				c4.7,0,8.5-3.8,8.5-8.5s-3.8-8.5-8.5-8.5H93.9c-4.7,0-8.5,3.8-8.5,8.5s3.8,8.5,8.5,8.5h25.6v34.1H42.7
				c-14.1,0-25.6-11.5-25.6-25.6V213.3c0-14.1,11.5-25.6,25.6-25.6h426.7c14.1,0,25.6,11.5,25.6,25.6V349.9z"/>
		</g>
	</g>
	<g>
		<g>
			<rect x="426.7" y="204.8" class="st0" width="17.1" height="17.1"/>
		</g>
	</g>
	<g>
		<g>
			<rect x="460.8" y="204.8" class="st0" width="17.1" height="17.1"/>
		</g>
	</g>
	<g>
		<g>
			<rect x="170.7" y="358.4" class="st0" width="170.7" height="17.1"/>
		</g>
	</g>
	<g>
		<g>
			<rect x="170.7" y="392.5" class="st0" width="170.7" height="17.1"/>
		</g>
	</g>
	<g>
		<g>
			<rect x="392.5" y="204.8" class="st0" width="17.1" height="17.1"/>
		</g>
	</g>
</g>
</svg>
