<svg xmlns="http://www.w3.org/2000/svg" width="18.594" height="16" viewBox="0 0 18.594 16"><defs><style>.a{fill:#919a9f;}</style></defs><path class="a" d="M393.768,225.115h5.267c.177,0,.32-.193.32-.43s-.137-.431-.32-.431h-5.267c-.179,0-.32.189-.32.431S393.585,225.115,393.768,225.115Z" transform="translate(-391.033 -218.198)"/><path class="a" d="M397.786,227.112h-3.967a.442.442,0,0,0-.363.519.454.454,0,0,0,.375.342h3.956a.442.442,0,0,0,.363-.519A.452.452,0,0,0,397.786,227.112Z" transform="translate(-391.034 -218.028)"/><path class="a" d="M393.819,222.257h3.31a.464.464,0,0,0,.3-.185.416.416,0,0,0,.07-.33.452.452,0,0,0-.377-.345h-3.3a.457.457,0,0,0-.3.187.413.413,0,0,0-.07.328A.448.448,0,0,0,393.819,222.257Z" transform="translate(-391.034 -218.369)"/><path class="a" d="M405.078,224.613v-4.128a2.015,2.015,0,0,0-2.066-1.945h-9.645a2.016,2.016,0,0,0-2.065,1.945v12.11a2.014,2.014,0,0,0,2.065,1.944h10.448a.5.5,0,0,0,.18-.034,5.819,5.819,0,0,0,.623.034,5.416,5.416,0,0,0,3.733-1.457,4.8,4.8,0,0,0,1.544-3.518A5.126,5.126,0,0,0,405.078,224.613Zm-12.86-4.128a1.12,1.12,0,0,1,1.149-1.083h9.645a1.122,1.122,0,0,1,1.149,1.083v4.128a5.359,5.359,0,0,0-3.551,1.719,4.755,4.755,0,0,0-1.255,3.617,4.946,4.946,0,0,0,2.294,3.729h-8.282a1.12,1.12,0,0,1-1.149-1.083Zm16.766,9.083a4.373,4.373,0,1,1-4.366-4.111A4.257,4.257,0,0,1,408.984,229.567Z" transform="translate(-391.302 -218.539)"/><path class="a" d="M5.279,2.271H3.327V.432a.459.459,0,0,0-.917,0V2.271H.458A.446.446,0,0,0,0,2.7a.445.445,0,0,0,.458.43H2.41V4.973a.459.459,0,0,0,.917,0V3.133H5.279a.445.445,0,0,0,.458-.43A.446.446,0,0,0,5.279,2.271Z" transform="translate(13.2 7.089) rotate(45)"/></svg>