<svg xmlns="http://www.w3.org/2000/svg" width="28" height="28" viewBox="0 0 28 28"><defs><style>.ab{fill:#609fae;}.bc,.cd{fill:#fff;}.bc{fill-rule:evenodd;}</style></defs><g transform="translate(-1239 -128)"><circle class="ab" cx="14" cy="14" r="14" transform="translate(1239 128)"/><g transform="translate(1245 136)"><path class="bc" d="M3,5.444A1.45,1.45,0,0,1,4.455,4H14.636a1.45,1.45,0,0,1,1.455,1.444v5.778a1.449,1.449,0,0,1-1.455,1.444H4.455A1.45,1.45,0,0,1,3,11.222Zm1.455,0H14.636v5.778H4.455Z" transform="translate(-1.545 -4)"/><path class="cd" d="M1.727,18a.722.722,0,1,0,0,1.444H16.273a.722.722,0,1,0,0-1.444Z" transform="translate(-1 -7.889)"/></g></g></svg>