<svg xmlns="http://www.w3.org/2000/svg" width="15" height="15" viewBox="0 0 15 15"><defs><style>.a{fill:#919a9f;}</style></defs><path class="a" d="M263.327,250.273l-.6-.6a2.3,2.3,0,0,0-3.255,0L250.35,258.8a.526.526,0,0,0-.131.225l-1.2,4.331a.511.511,0,0,0,.36.628.505.505,0,0,0,.268,0l4.331-1.2a.506.506,0,0,0,.225-.131l9.124-9.124A2.3,2.3,0,0,0,263.327,250.273Zm-13.085,12.479.737-2.657,1.924,1.924Zm12.363-9.946-8.738,8.731-2.407-2.407L260.2,250.4a1.279,1.279,0,0,1,1.808,0l.6.6A1.279,1.279,0,0,1,262.605,252.806Z" transform="translate(-249 -249)"/></svg>