<svg xmlns="http://www.w3.org/2000/svg" width="26.904" height="15" viewBox="0 0 26.904 15"><defs><style>.a{fill:#919a9f;}</style></defs><path class="a" d="M349.309,251.061a4.586,4.586,0,0,0-2-1.215,3.238,3.238,0,0,0-1.981-5.8,3.2,3.2,0,0,0-1.816.561,3.239,3.239,0,0,0-.157,5.24,4.579,4.579,0,0,0-1.619.884,6.313,6.313,0,0,0-1.971-.907,4.458,4.458,0,0,0-2.554-8.112h0a4.461,4.461,0,0,0-4.372,3.625,4.458,4.458,0,0,0,1.827,4.487,6.305,6.305,0,0,0-1.969.906,4.58,4.58,0,0,0-1.622-.884,3.237,3.237,0,0,0-1.98-5.8,3.2,3.2,0,0,0-1.816.561,3.239,3.239,0,0,0-.157,5.24,4.574,4.574,0,0,0-2,1.213,4.69,4.69,0,0,0-1.355,3.334.444.444,0,0,0,.44.445h5.742a6.557,6.557,0,0,0-.14,1.35.522.522,0,0,0,.516.523H344.1a.522.522,0,0,0,.517-.523,6.509,6.509,0,0,0-.14-1.35h5.742a.444.444,0,0,0,.44-.444A4.693,4.693,0,0,0,349.309,251.061Zm-6.478-3.8a2.52,2.52,0,0,1,2.5-2.472h.031a2.5,2.5,0,0,1,2.471,2.524,2.5,2.5,0,0,1-5-.053Zm-9.244-1.125a3.654,3.654,0,0,1,3.624-3.585h.041a3.624,3.624,0,0,1-.039,7.248A3.668,3.668,0,0,1,333.587,246.133Zm-6.993,1.125a2.518,2.518,0,0,1,2.5-2.472h.03a2.5,2.5,0,0,1-.027,5A2.529,2.529,0,0,1,326.594,247.258Zm-2.047,6.837a.1.1,0,0,1-.024-.078,4.012,4.012,0,0,1,3.845-3.528l1.444,0a3.9,3.9,0,0,1,2.2.777c-.041.038-.085.071-.126.109-.069.066-.145.123-.211.191a6.508,6.508,0,0,0-1.555,2.571h-5.506A.112.112,0,0,1,324.547,254.095Zm19.162,1.729a.266.266,0,0,1-.2.106H330.9a.259.259,0,0,1-.174-.095.255.255,0,0,1-.055-.189,5.586,5.586,0,0,1,.179-.879,5.505,5.505,0,0,1,.186-.556,5.752,5.752,0,0,1,1.507-2.156,5.83,5.83,0,0,1,3.649-1.47l2.037,0a5.682,5.682,0,0,1,3.138,1.062,5.857,5.857,0,0,1,.516.409,5.762,5.762,0,0,1,1.506,2.159,5.626,5.626,0,0,1,.185.556,5.553,5.553,0,0,1,.178.877A.238.238,0,0,1,343.709,255.824Zm6.174-1.734a.117.117,0,0,1-.083.047h-5.5a6.512,6.512,0,0,0-1.555-2.571c-.065-.068-.14-.124-.208-.188-.04-.038-.084-.072-.126-.109a3.91,3.91,0,0,1,2.2-.778l1.443,0a4.011,4.011,0,0,1,3.85,3.531A.092.092,0,0,1,349.883,254.09Z" transform="translate(-323.758 -241.713)"/></svg>