<svg xmlns="http://www.w3.org/2000/svg" width="12" height="12" viewBox="0 0 12 12"><path  d="M6,12A6,6,0,0,1,1.757,1.757a6,6,0,0,1,8.485,8.485A5.961,5.961,0,0,1,6,12ZM6,.75A5.25,5.25,0,1,0,11.25,6,5.256,5.256,0,0,0,6,.75Z" transform="translate(0 0)"/><path  d="M177.719,101.844a.344.344,0,0,1-.344-.344,3.227,3.227,0,0,1,.951-2.3,2.02,2.02,0,0,0,.6-1.438,1.079,1.079,0,0,0-1.078-1.078h-.078a1.079,1.079,0,0,0-1.078,1.078v.125a.344.344,0,0,1-.687,0v-.125A1.768,1.768,0,0,1,177.766,96h.078a1.768,1.768,0,0,1,1.766,1.766,2.7,2.7,0,0,1-.8,1.924,2.544,2.544,0,0,0-.75,1.811A.344.344,0,0,1,177.719,101.844Z" transform="translate(-171.707 -93.538)"/><path  d="M240.359,400.688a.344.344,0,0,1,0-.687h0a.344.344,0,0,1,0,.688Z" transform="translate(-234.358 -390.573)"/></svg>