<svg xmlns="http://www.w3.org/2000/svg" width="31.1" height="15" viewBox="0 0 31.1 15"><defs><style>.a{fill:#919a9f;}</style></defs><g transform="translate(-337.429 -219.561)"><path class="a" d="M351.953,232.058a6.527,6.527,0,0,0-1.582-2.644c-.066-.068-.141-.124-.209-.189a6.282,6.282,0,0,0-.517-.45,6.353,6.353,0,0,0-2.256-1.1,4.458,4.458,0,0,0-2.554-8.112h0a4.411,4.411,0,0,0-2.5.773,4.456,4.456,0,0,0-.045,7.339,6.365,6.365,0,0,0-2.253,1.1,6.578,6.578,0,0,0-.514.447c-.069.066-.145.123-.211.192a6.507,6.507,0,0,0-1.583,2.644c-.056.183-.1.369-.144.556a6.608,6.608,0,0,0-.152,1.424.522.522,0,0,0,.516.523h13.787a.521.521,0,0,0,.517-.523,6.607,6.607,0,0,0-.153-1.424C352.056,232.426,352.009,232.241,351.953,232.058Zm-10.737-8.076a3.655,3.655,0,0,1,3.623-3.586h.042a3.624,3.624,0,0,1-.039,7.248A3.668,3.668,0,0,1,341.216,223.982Zm10.122,9.691a.268.268,0,0,1-.2.1H338.53a.257.257,0,0,1-.23-.283,5.557,5.557,0,0,1,.179-.88,5.471,5.471,0,0,1,.186-.555,5.762,5.762,0,0,1,1.507-2.157,5.908,5.908,0,0,1,.513-.407,5.677,5.677,0,0,1,3.136-1.063l2.038,0A5.693,5.693,0,0,1,349,229.49a5.81,5.81,0,0,1,.515.409,5.744,5.744,0,0,1,1.506,2.159,5.583,5.583,0,0,1,.186.556,5.656,5.656,0,0,1,.178.877A.242.242,0,0,1,351.338,233.673Z"/><path class="a" d="M368.375,232.614c-.04-.188-.087-.373-.144-.556a6.505,6.505,0,0,0-1.582-2.644c-.065-.068-.14-.124-.208-.189a6.162,6.162,0,0,0-2.774-1.552,4.458,4.458,0,0,0-2.553-8.112h0a4.408,4.408,0,0,0-2.5.773,4.456,4.456,0,0,0-.045,7.339,6.147,6.147,0,0,0-2.767,1.549c-.069.066-.145.123-.212.192A6.516,6.516,0,0,0,354,232.058c-.057.183-.1.369-.144.556a6.609,6.609,0,0,0-.153,1.424.523.523,0,0,0,.516.523h13.788a.522.522,0,0,0,.517-.523A6.609,6.609,0,0,0,368.375,232.614Zm-10.88-8.632a3.655,3.655,0,0,1,3.623-3.586h.041a3.624,3.624,0,0,1-.039,7.248A3.667,3.667,0,0,1,357.495,223.982Zm10.121,9.691a.266.266,0,0,1-.2.1H354.808a.259.259,0,0,1-.23-.283,5.792,5.792,0,0,1,.179-.88c.054-.189.115-.375.186-.555a5.709,5.709,0,0,1,2.021-2.564,5.677,5.677,0,0,1,3.136-1.063l2.037,0a5.687,5.687,0,0,1,3.138,1.062,5.687,5.687,0,0,1,2.022,2.568,5.583,5.583,0,0,1,.186.556,5.656,5.656,0,0,1,.178.877A.239.239,0,0,1,367.616,233.673Z"/><path class="a" d="M350.814,227.567a.2.2,0,0,0,.289-.29l-.329-.328h4.519l.007,0-.331.33a.205.205,0,0,0,.29.29l.785-.786a.2.2,0,0,0,.059-.147.2.2,0,0,0-.059-.146l-.785-.786a.2.2,0,0,0-.29.289l.331.331-.007,0h-4.519l.329-.329a.2.2,0,1,0-.289-.289l-.786.786a.2.2,0,0,0-.059.146.209.209,0,0,0,.059.147Zm4.8-.933-.007.007,0-.007,0-.006Z"/></g></svg>