<svg xmlns="http://www.w3.org/2000/svg" width="15.941" height="14.334" viewBox="0 0 15.941 14.334"><defs><style>.a{fill:#919a9f;fill-rule:evenodd;}</style></defs><path class="a" d="M6.373,3A3.374,3.374,0,0,1,9.639,5.529H16.49V7.216H9.639A3.373,3.373,0,1,1,6.373,3Zm0,5.059A1.686,1.686,0,1,0,4.686,6.373,1.686,1.686,0,0,0,6.373,8.059Z" transform="translate(-3 -3)"/><path class="a" d="M15.118,18.745a3.374,3.374,0,0,1-3.266-2.529H5V14.529h6.851a3.373,3.373,0,1,1,3.266,4.216Zm0-1.686a1.686,1.686,0,1,0-1.686-1.686A1.686,1.686,0,0,0,15.118,17.059Z" transform="translate(-3.314 -4.412)"/></svg>