<svg xmlns="http://www.w3.org/2000/svg" width="22.75" height="15.416" viewBox="0 0 22.75 15.416"><defs><style>.a{fill:#919a9f;}</style></defs><path class="a" d="M-365.464,134.164a.52.52,0,0,0-.513-.009l-5.616,3.065V135.38a2.594,2.594,0,0,0-2.594-2.591h-11.186a2.594,2.594,0,0,0-2.592,2.591v10.233a2.594,2.594,0,0,0,2.592,2.591h11.186a2.593,2.593,0,0,0,2.591-2.591v-1.8l5.613,3.065a.518.518,0,0,0,.7-.205.509.509,0,0,0,.063-.246V134.609a.518.518,0,0,0-.254-.446Zm-7.166,11.449a1.556,1.556,0,0,1-1.557,1.555h-11.186a1.556,1.556,0,0,1-1.555-1.555V135.38a1.557,1.557,0,0,1,1.555-1.555h11.186a1.557,1.557,0,0,1,1.555,1.555Zm6.38-.069-5.343-2.918V138.4l5.343-2.917Z" transform="translate(387.965 -132.789)"/></svg>