<svg xmlns="http://www.w3.org/2000/svg" width="14.571" height="16" viewBox="0 0 14.571 16"><defs><style>.a{fill:#919a9f;}</style></defs><g transform="translate(0 0)"><path class="a" d="M218.564,433.626h-4.749a.347.347,0,0,0,0,.693h4.749a.347.347,0,0,0,0-.693Z" transform="translate(-206.94 -427.393)"/><path class="a" d="M211.031,432.842l-1.089,1.336-.545-.408a.273.273,0,0,0-.386.386l.742.606a.272.272,0,0,0,.383,0v0h0l1.281-1.527a.274.274,0,0,0-.387-.387Z" transform="translate(-206.374 -427.23)"/><path class="a" d="M211.031,438.086l-1.089,1.336-.545-.408a.273.273,0,0,0-.386.386l.742.606a.272.272,0,0,0,.383,0v0h0l1.281-1.527a.274.274,0,0,0-.387-.387Z" transform="translate(-206.374 -428.036)"/><path class="a" d="M218.564,438.87h-4.749a.347.347,0,0,0,0,.694h4.749a.347.347,0,0,0,0-.694Z" transform="translate(-206.94 -428.221)"/><path class="a" d="M218.559,426.994h-1.2v-.406a.363.363,0,0,0-.727,0v.406h-3.056v-.406a.364.364,0,0,0-.363-.363l-.005,0,0,0a.364.364,0,0,0-.363.363v.406H209.78v-.406a.363.363,0,1,0-.726,0v.406h-1.2a1.934,1.934,0,0,0-1.931,1.931v11.368a1.935,1.935,0,0,0,1.931,1.931h10.709a1.936,1.936,0,0,0,1.931-1.931V428.925A1.934,1.934,0,0,0,218.559,426.994Zm1.2,13.3a1.208,1.208,0,0,1-1.2,1.2H207.85a1.208,1.208,0,0,1-1.2-1.2V428.925a1.209,1.209,0,0,1,1.2-1.2h1.2v.421a.363.363,0,1,0,.726,0v-.421h3.057v.421a.364.364,0,0,0,.363.363h.009a.364.364,0,0,0,.363-.363v-.421h3.056v.421a.363.363,0,0,0,.727,0v-.421h1.2a1.209,1.209,0,0,1,1.2,1.2Z" transform="translate(-205.919 -426.225)"/></g></svg>