<svg xmlns="http://www.w3.org/2000/svg" width="28" height="28" viewBox="0 0 28 28"><defs><style>.at{fill:#609fae;}.bt{fill:#fff;}</style></defs><g transform="translate(-1279 -128)"><circle class="at" cx="14" cy="14" r="14" transform="translate(1279 128)"/><g transform="translate(1285 134)"><path class="bt" d="M11,14.986a1,1,0,0,0,2,0V7.828l3.243,3.243,1.414-1.414L12,4,6.343,9.657l1.414,1.414L11,7.829Z" transform="translate(-4 -4)"/><path class="bt" d="M4,14H6v4H18V14h2v4a2,2,0,0,1-2,2H6a2,2,0,0,1-2-2Z" transform="translate(-4 -4)"/></g></g></svg>