<svg xmlns="http://www.w3.org/2000/svg" width="20.258" height="16.09" viewBox="0 0 20.258 16.09"><defs><style></style></defs><path d="M463.774,42.662a.452.452,0,1,0-.8.42,8.119,8.119,0,0,1,0,7.541.452.452,0,0,0,.8.42,9.022,9.022,0,0,0,0-8.382Z" transform="translate(-444.548 -41.851)"/><path d="M407.7,60.761a.451.451,0,0,0-.189.61,6.316,6.316,0,0,1,0,5.865.452.452,0,1,0,.8.42,7.218,7.218,0,0,0,0-6.706A.452.452,0,0,0,407.7,60.761Z" transform="translate(-391.628 -59.302)"/><path d="M352.241,84.461a.452.452,0,0,0,.61-.19,5.413,5.413,0,0,0,0-5.03.452.452,0,0,0-.8.42,4.51,4.51,0,0,1,0,4.189A.452.452,0,0,0,352.241,84.461Z" transform="translate(-338.334 -76.755)"/><path  d="M42.5,38.757a4.818,4.818,0,0,0,2.059-3.962,4.709,4.709,0,1,0-9.416,0A4.818,4.818,0,0,0,37.2,38.757a6.726,6.726,0,0,0-3.209,1.87A7.054,7.054,0,0,0,32,45.557a.528.528,0,0,0,.523.533H47.171a.528.528,0,0,0,.523-.533,7.055,7.055,0,0,0-1.989-4.93A6.726,6.726,0,0,0,42.5,38.757ZM35.97,34.795a3.877,3.877,0,1,1,3.877,3.948A3.917,3.917,0,0,1,35.97,34.795ZM46.536,45.307H33.158a.292.292,0,0,1-.286-.333,6.1,6.1,0,0,1,5.892-5.441h2.164a6.1,6.1,0,0,1,5.892,5.441A.292.292,0,0,1,46.536,45.307Z" transform="translate(-32 -30)"/></svg>