<svg xmlns="http://www.w3.org/2000/svg" width="28" height="28" viewBox="0 0 28 28"><defs><style>.ae{fill:#609fae;}.be{fill:#fff;fill-rule:evenodd;}</style></defs><g transform="translate(-1319 -128)"><circle class="ae" cx="14" cy="14" r="14" transform="translate(1319 128)"/><path class="be" d="M8.448,7.5H2.112A2.112,2.112,0,0,0,0,9.612v4.224a2.112,2.112,0,0,0,2.112,2.112h8.448a2.112,2.112,0,0,0,2.1-1.937L16,14.54V8.908l-3.335.529a2.112,2.112,0,0,0-2.1-1.937H8.448Zm4.224,3.355v1.738l1.919.352V10.5ZM11.265,9.612a.7.7,0,0,0-.7-.7H2.112a.7.7,0,0,0-.7.7v4.224a.7.7,0,0,0,.7.7h8.448a.7.7,0,0,0,.7-.7Z" transform="translate(1325 130.5)"/></g></svg>