<svg xmlns="http://www.w3.org/2000/svg" width="32" height="32" viewBox="0 0 32 32"><defs><style>.a{fill:#609fae;}.b,.c{fill:#fff;}.b{fill-rule:evenodd;}</style></defs><g transform="translate(-1309 -79)"><circle class="a" cx="16" cy="16" r="16" transform="translate(1309 79)"/><g transform="translate(1317 87)"><path class="b" d="M8,11A4,4,0,1,0,4,7,4,4,0,0,0,8,11ZM8,9A2,2,0,1,0,6,7,2,2,0,0,0,8,9Z" transform="translate(-2 -3)"/><path class="c" d="M11,14a1,1,0,0,1,1,1v4.079h2V15a3,3,0,0,0-3-3H5a3,3,0,0,0-3,3v4.079H4V15a1,1,0,0,1,1-1Z" transform="translate(-2 -3)"/><path class="c" d="M18,7h2V9h2v2H20v2H18V11H16V9h2Z" transform="translate(-4 -3)"/></g></g></svg>