<svg xmlns="http://www.w3.org/2000/svg" width="24.506" height="22.177" viewBox="0 0 24.506 22.177"><defs><style>.a{fill:#919a9f;}</style></defs><path class="a" d="M45.414,1.664a5.47,5.47,0,0,0-7.657-.076L36.267,3.074,27.341,12A7.151,7.151,0,0,0,37.454,22.108l8.93-8.921A.843.843,0,0,0,45.192,12l-8.926,8.926a5.469,5.469,0,0,1-7.733-7.733l.6-.6,8.329-8.329,1.486-1.486A3.788,3.788,0,0,1,44.3,8.133L42.518,9.918l-8.036,8.031a2.1,2.1,0,1,1-2.977-2.977l8.036-8.036a.84.84,0,1,0-1.188-1.188l-8.036,8.036a3.785,3.785,0,0,0,5.352,5.352l8.036-8.031L45.49,9.321A5.47,5.47,0,0,0,45.414,1.664Z" transform="matrix(-0.017, -1, 1, -0.017, 0.758, 47.431)"/></svg>