<svg xmlns="http://www.w3.org/2000/svg" width="32" height="32" viewBox="0 0 32 32"><defs><style>.a{fill:#609fae;}.b{fill:#fff;}</style></defs><g transform="translate(-1229 -79)"><g transform="translate(-40)"><circle class="a" cx="16" cy="16" r="16" transform="translate(1269 79)"/><g transform="translate(1278 88)"><path class="b" d="M19,9a7,7,0,0,0-7-7V3.4A5.6,5.6,0,0,1,17.6,9Z" transform="translate(-5 -2)"/><path class="b" d="M2,8.2V4.7A.7.7,0,0,1,2.7,4H6.2a.7.7,0,0,1,.7.7V7.5a.7.7,0,0,1-.7.7H4.8a5.6,5.6,0,0,0,5.6,5.6V12.4a.7.7,0,0,1,.7-.7h2.8a.7.7,0,0,1,.7.7v3.5a.7.7,0,0,1-.7.7H10.4A8.4,8.4,0,0,1,2,8.2Z" transform="translate(-2 -2.6)"/><path class="b" d="M15.88,8.593A4.2,4.2,0,0,1,16.2,10.2H14.94A2.94,2.94,0,0,0,12,7.26V6a4.2,4.2,0,0,1,3.88,2.593Z" transform="translate(-5 -3.2)"/></g></g></g></svg>