<svg xmlns="http://www.w3.org/2000/svg" width="32" height="32" viewBox="0 0 32 32"><defs><style>.a{fill:#609fae;}.b{fill:#fff;fill-rule:evenodd;}</style></defs><g transform="translate(-1269 -79)"><g transform="translate(-50 -49)"><circle class="a" cx="16" cy="16" r="16" transform="translate(1319 128)"/><path class="b" d="M10,7.5H2.5A2.5,2.5,0,0,0,0,10v5a2.5,2.5,0,0,0,2.5,2.5h10a2.5,2.5,0,0,0,2.491-2.293l3.947.626V9.167l-3.947.626A2.5,2.5,0,0,0,12.5,7.5H10Zm5,3.971v2.057l2.272.417V11.055ZM13.333,10a.833.833,0,0,0-.833-.833H2.5A.833.833,0,0,0,1.667,10v5a.833.833,0,0,0,.833.833h10A.833.833,0,0,0,13.333,15Z" transform="translate(1325.857 131.929)"/></g></g></svg>