<svg xmlns="http://www.w3.org/2000/svg" width="20" height="18" viewBox="0 0 20 18"><defs><style>.a,.b{fill:#919a9f;}.a{fill-rule:evenodd;}</style></defs><g transform="translate(-11388 15362)"><g transform="translate(11388 -15362)"><path class="a" d="M8,11A4,4,0,1,0,4,7,4,4,0,0,0,8,11ZM8,9A2,2,0,1,0,6,7,2,2,0,0,0,8,9Z" transform="translate(-2 -3)"/><path class="b" d="M11,14a1,1,0,0,1,1,1v6h2V15a3,3,0,0,0-3-3H5a3,3,0,0,0-3,3v6H4V15a1,1,0,0,1,1-1Z" transform="translate(-2 -3)"/><path class="b" d="M22,11H16v2h6Z" transform="translate(-2 -3)"/><path class="b" d="M16,15h6v2H16Z" transform="translate(-2 -3)"/><path class="b" d="M22,7H16V9h6Z" transform="translate(-2 -3)"/></g></g></svg>