<svg xmlns="http://www.w3.org/2000/svg" width="15.233" height="13.786" viewBox="0 0 15.233 13.786"><defs><style>.a{fill:#919a9f;}</style></defs><path class="a" d="M37.787,1.058a3.4,3.4,0,0,0-4.76-.047l-.927.924L26.552,7.48a4.445,4.445,0,0,0,6.287,6.287l5.551-5.545a.524.524,0,0,0-.741-.741L32.1,13.028a3.4,3.4,0,0,1-4.807-4.807l.371-.371,5.178-5.178.924-.924A2.355,2.355,0,0,1,37.1,5.08L35.987,6.189l-5,4.992a1.308,1.308,0,0,1-1.85-1.85l5-5A.522.522,0,0,0,33.4,3.6l-5,5a2.353,2.353,0,0,0,3.327,3.327l5-4.992,1.109-1.109A3.4,3.4,0,0,0,37.787,1.058Z" transform="matrix(-0.017, -1, 1, -0.017, 0.614, 39.04)"/></svg>