<svg xmlns="http://www.w3.org/2000/svg" width="22.851" height="15.1" viewBox="0 0 22.851 15.1"><defs><style>.a,.c{fill:#919a9f;}.a,.b,.c{stroke:#919a9f;}.a{stroke-miterlimit:10;stroke-width:0.2px;}.b,.e{fill:none;}.c{stroke-width:0.1px;}.d{stroke:none;}</style></defs><g transform="translate(-2982 -1035.9)"><g transform="translate(-1 -1)"><path class="a" d="M10.534,11.786H4.5a4.959,4.959,0,0,0,.3-.792h5.738A1.192,1.192,0,0,0,11.724,9.8V1.981A1.194,1.194,0,0,0,10.534.792H1.982A1.193,1.193,0,0,0,.793,1.981V4.723A5.03,5.03,0,0,0,0,4.66V1.981A1.986,1.986,0,0,1,1.982,0h8.552a1.986,1.986,0,0,1,1.983,1.981V3.388L16.81,1.044a.392.392,0,0,1,.582.347v9.032a.386.386,0,0,1-.048.188.4.4,0,0,1-.538.157L12.514,8.425V9.8A1.985,1.985,0,0,1,10.534,11.786ZM16.6,2.06,12.516,4.29V7.52L16.6,9.752Z" transform="translate(2988.357 1037)"/><g class="b" transform="translate(2983 1041.286)"><circle class="d" cx="5.357" cy="5.357" r="5.357"/><circle class="e" cx="5.357" cy="5.357" r="4.857"/></g><path class="c" d="M3.155,0a.394.394,0,0,0-.394.394V2.761H.394a.394.394,0,1,0,0,.789H2.761V5.916a.394.394,0,1,0,.789,0V3.55H5.916a.394.394,0,1,0,0-.789H3.55V.394A.394.394,0,0,0,3.155,0Z" transform="translate(2988.357 1042.149) rotate(45)"/></g></g></svg>