<svg xmlns="http://www.w3.org/2000/svg" width="15.928" height="15.928" viewBox="0 0 15.928 15.928"><defs><style>.a{fill:#919a9f;}</style></defs><path class="a" d="M7.964,0a7.964,7.964,0,1,0,7.964,7.964A7.96,7.96,0,0,0,7.964,0Zm0,14.866a6.9,6.9,0,1,1,6.9-6.9A6.91,6.91,0,0,1,7.964,14.866Z"/><g transform="translate(7.433 6.526)"><path class="a" d="M239.461,209.777a.531.531,0,0,0-.531.531v4.479a.531.531,0,1,0,1.062,0v-4.479A.531.531,0,0,0,239.461,209.777Z" transform="translate(-238.93 -209.777)"/></g><g transform="translate(6.902 3.861)"><path class="a" d="M222.929,124.122a1.062,1.062,0,1,0,1.062,1.062A1.063,1.063,0,0,0,222.929,124.122Z" transform="translate(-221.867 -124.122)"/></g></svg>