<svg xmlns="http://www.w3.org/2000/svg" width="31.957" height="20.595" viewBox="0 0 31.957 20.595"><defs><style>.a{fill:#919a9f;}</style></defs><g transform="translate(-11482 15361.595)"><g transform="translate(11482 -15452.618)"><path class="a" d="M3.924,109.529a36.805,36.805,0,0,0,12.054,2.09,36.806,36.806,0,0,0,12.054-2.09c4.12-13.417,3.924-12.447,3.924-12.889,0-1.687-2.695-2.385-4.379-2.75l-.791-.172L25.52,97.091l-2.508-4.6a2.806,2.806,0,0,0-2.466-1.464H11.473a2.9,2.9,0,0,0-2.529,1.464l-2.508,4.6L5.171,93.717l-.791.172C2.709,94.251,0,94.954,0,96.639c0,.444-.148-.366,3.924,12.889Zm24.04-13.624a7,7,0,0,1,1.949.733,8.362,8.362,0,0,1-2.552.877ZM10.589,93.383a1.046,1.046,0,0,1,.884-.488h9.072a.936.936,0,0,1,.822.488l2.559,4.7a68.955,68.955,0,0,1-7.948.432A68.955,68.955,0,0,1,8.03,98.08Zm5.389,7c3.776,0,9.841-.309,13.382-1.473l-2.838,9.165a36.15,36.15,0,0,1-10.544,1.669,36.266,36.266,0,0,1-10.544-1.67L2.6,98.911C6.145,100.078,12.2,100.384,15.978,100.384ZM3.991,95.905l.6,1.61a8.362,8.362,0,0,1-2.553-.877,6.992,6.992,0,0,1,1.949-.733Z" transform="translate(0 0)"/><path class="a" d="M212.883,276.629h1.872v-1.872h1.872v-1.872h-1.872v-1.872h-1.872v1.872h-1.872v1.872h1.872Z" transform="translate(-197.841 -168.756)"/></g></g></svg>