<svg xmlns="http://www.w3.org/2000/svg" width="24" height="24" viewBox="0 0 24 24"><defs><style>.a{fill:#609fae;}</style></defs><g transform="translate(-11587 15365)"><g transform="translate(11585 -15367)"><g transform="translate(2 2)"><path class="a" d="M23.6,6.8H18.8V4.4A2.407,2.407,0,0,0,16.4,2H11.6A2.407,2.407,0,0,0,9.2,4.4V6.8H4.4A2.407,2.407,0,0,0,2,9.2V23.6A2.407,2.407,0,0,0,4.4,26H23.6A2.407,2.407,0,0,0,26,23.6V9.2A2.407,2.407,0,0,0,23.6,6.8Zm-12-2.4h4.8V6.8H11.6Zm12,19.2H4.4V9.2H23.6Z" transform="translate(-2 -2)"/><path class="a" d="M13,10H11v3H8v2h3v3h2V15h3V13H13Z" transform="translate(0 0.667)"/></g></g></g></svg>