<svg xmlns="http://www.w3.org/2000/svg" width="13.687" height="16" viewBox="0 0 13.687 16"><defs><style>.a{fill:#919a9f;}</style></defs><g transform="translate(2.28 3.801)"><path class="a" d="M-272.989,213.338h7.955a.453.453,0,0,0,.47-.434.454.454,0,0,0-.47-.434h-7.955a.453.453,0,0,0-.469.434A.452.452,0,0,0-272.989,213.338Z" transform="translate(273.458 -208.669)"/><path class="a" d="M-272.989,213.338h7.955a.453.453,0,0,0,.47-.434.454.454,0,0,0-.47-.434h-7.955a.453.453,0,0,0-.469.434A.452.452,0,0,0-272.989,213.338Z" transform="translate(273.458 -212.47)"/><path class="a" d="M-272.989,213.338h7.955a.453.453,0,0,0,.47-.434.454.454,0,0,0-.47-.434h-7.955a.453.453,0,0,0-.469.434A.452.452,0,0,0-272.989,213.338Z" transform="translate(273.458 -204.868)"/></g><path class="a" d="M-266.124,207.72h-10.55a1.718,1.718,0,0,0-1.568,1.834v12.332a1.718,1.718,0,0,0,1.568,1.834h10.55a1.719,1.719,0,0,0,1.568-1.834V209.55A1.719,1.719,0,0,0-266.124,207.72Zm.715,14.163a.788.788,0,0,1-.715.837h-10.55a.786.786,0,0,1-.714-.837V209.551a.786.786,0,0,1,.713-.837h10.549a.788.788,0,0,1,.715.836Z" transform="translate(278.242 -207.72)"/></svg>