<svg xmlns="http://www.w3.org/2000/svg" width="17.366" height="17.978" viewBox="0 0 17.366 17.978"><g transform="translate(-259.563 -324.124)"><path  d="M275.013,326.833l.77-2.052a.486.486,0,0,0-.455-.656H261.165a.486.486,0,0,0-.486.486.48.48,0,0,0,.031.17l.77,2.055c-2.4,3.106-2.031,8.384-1.6,14.475l.022.328a.489.489,0,0,0,.458.452c.153.008.3.011.447.011a10.4,10.4,0,0,0,4.139-.934,10.414,10.414,0,0,0,3.1.908,5.774,5.774,0,0,0,3.5-.908,10.224,10.224,0,0,0,4.587.923.49.49,0,0,0,.458-.452l.022-.328C277.044,335.22,277.412,329.941,275.013,326.833Zm-6.767-1.737h6.38l-.617,1.647,0,.006-.932,3.163a16.156,16.156,0,0,0-4.8-.875h-.011a16.228,16.228,0,0,0-4.815.875l-.957-3.157-.621-1.658Zm0,16.012a5.041,5.041,0,0,1-2.918-.93h0a5.046,5.046,0,0,1-2.125-4.11v-2.623a32,32,0,0,0,5.04-1.32,32.031,32.031,0,0,0,5.04,1.32v2.623A5.039,5.039,0,0,1,268.248,341.108Zm7.406.022a9.5,9.5,0,0,1-3.3-.675c.027-.026.053-.056.08-.081.059-.058.117-.116.175-.177l.02-.02h0a6.017,6.017,0,0,0,1.629-4.11v-3.03a.484.484,0,0,0-.4-.478,32.628,32.628,0,0,1-5.421-1.407.485.485,0,0,0-.375,0,32.65,32.65,0,0,1-5.42,1.407.485.485,0,0,0-.4.478v3.03a6.021,6.021,0,0,0,1.728,4.217c.056.058.114.115.174.171a9.5,9.5,0,0,1-3.3.675c-.386-5.5-.711-10.308,1.058-13.188l.8,2.754a.507.507,0,0,0,.256.275.486.486,0,0,0,.375.008,16.14,16.14,0,0,1,4.929-.972h.011a16.023,16.023,0,0,1,4.915.972.486.486,0,0,0,.375-.008.5.5,0,0,0,.256-.272l.781-2.76C276.365,330.819,276.04,335.626,275.655,341.13Z"/><path  d="M267.749,327.627h.585a.035.035,0,0,1,.035.034v.586a.22.22,0,0,0,.221.221H269a.22.22,0,0,0,.221-.221v-.586a.035.035,0,0,1,.034-.034h.586a.221.221,0,0,0,.221-.221v-.414a.22.22,0,0,0-.221-.221h-.586a.035.035,0,0,1-.034-.035v-.585a.22.22,0,0,0-.221-.221h-.414a.22.22,0,0,0-.221.221v.585a.035.035,0,0,1-.035.035h-.585a.22.22,0,0,0-.221.221v.414A.221.221,0,0,0,267.749,327.627Z" transform="translate(-0.551 -0.125)"/></g></svg>