<svg xmlns="http://www.w3.org/2000/svg" width="19.366" height="19.366" viewBox="0 0 19.366 19.366"><g transform="translate(-329.271 -327.178)"><path  d="M330.6,340.52a1.6,1.6,0,1,0,1.6-1.6A1.6,1.6,0,0,0,330.6,340.52Zm2.636,0a1.034,1.034,0,1,1-1.034-1.034A1.034,1.034,0,0,1,333.236,340.52Z" transform="translate(0.307 2.715)"/><path  d="M348.054,329.037a2.851,2.851,0,0,0-2.112-1.14,1.1,1.1,0,0,0-2.136.384V329.7a1.1,1.1,0,0,0,2.125.414.681.681,0,0,1,.474.842l-1.417,4.961a2.675,2.675,0,0,1-5.143,0l-1.417-4.962a.665.665,0,0,1,.11-.593.677.677,0,0,1,.366-.247,1.1,1.1,0,0,0,2.124-.414v-1.423a1.1,1.1,0,0,0-2.136-.384,2.882,2.882,0,0,0-2.582,3.669l1.417,4.961a5.007,5.007,0,0,0,.272.729,3.629,3.629,0,0,0-6.591,2.1v.836a3.239,3.239,0,1,0,2.2,0v-.836a1.426,1.426,0,1,1,2.852,0v3.663a3.528,3.528,0,0,0,7.056,0v-.27l1.438-3.4c.135-.082.268-.172.4-.268a4.846,4.846,0,0,0,1.753-2.555l1.417-4.962A2.855,2.855,0,0,0,348.054,329.037Zm-.075,2.371-1.418,4.962a4.274,4.274,0,0,1-1.548,2.257,4.419,4.419,0,0,1-.5.328l-1.557,3.676v.385a2.959,2.959,0,1,1-5.919,0v-3.663a1.994,1.994,0,0,0-3.988,0v1.264a2.671,2.671,0,1,1-1.069,0v-1.264a3.062,3.062,0,0,1,6.124,0v3.663a1.892,1.892,0,0,0,3.784,0v-.385l-1.558-3.676a4.422,4.422,0,0,1-.5-.328,4.284,4.284,0,0,1-1.549-2.257l-1.417-4.962a2.315,2.315,0,0,1,2.226-2.95h.31v-.177a.534.534,0,1,1,1.068,0v1.425a.534.534,0,0,1-1.068,0v-.179h-.31a1.248,1.248,0,0,0-1.2,1.588l1.418,4.961a3.241,3.241,0,0,0,6.234,0l1.418-4.961a1.248,1.248,0,0,0-1.2-1.588h-.31v.179a.534.534,0,0,1-1.067,0v-1.425a.534.534,0,1,1,1.067,0v.177h.31a2.315,2.315,0,0,1,2.226,2.95Zm-9.61,6.5a4.882,4.882,0,0,0,1.111,1.17c.128.1.261.186.4.268l1.438,3.4v.27a1.323,1.323,0,1,1-2.646,0v-3.663A3.614,3.614,0,0,0,338.369,337.912Z"/><path  d="M339.356,337.133l.728,1.719.729-1.719a4.337,4.337,0,0,1-1.457,0Z" transform="translate(2.332 2.302)"/></g></svg>