<svg xmlns="http://www.w3.org/2000/svg" width="21.405" height="17" viewBox="0 0 21.405 17"><g transform="translate(-32 -30)"><path  d="M463.822,42.676a.477.477,0,1,0-.845.444,8.578,8.578,0,0,1,0,7.968.477.477,0,0,0,.845.444,9.533,9.533,0,0,0,0-8.856Z" transform="translate(-411.508 -11.819)"/><path  d="M407.717,60.764a.477.477,0,0,0-.2.644,6.673,6.673,0,0,1,0,6.2.477.477,0,1,0,.845.444,7.627,7.627,0,0,0,0-7.085A.477.477,0,0,0,407.717,60.764Z" transform="translate(-358.732 -29.222)"/><path  d="M352.255,84.77a.477.477,0,0,0,.644-.2,5.72,5.72,0,0,0,0-5.314.477.477,0,1,0-.845.444,4.766,4.766,0,0,1,0,4.426A.477.477,0,0,0,352.255,84.77Z" transform="translate(-305.561 -46.628)"/><path  d="M43.09,39.252a5.091,5.091,0,0,0,2.176-4.186,4.975,4.975,0,1,0-9.949,0,5.091,5.091,0,0,0,2.176,4.186,7.106,7.106,0,0,0-3.39,1.976A7.454,7.454,0,0,0,32,46.437a.558.558,0,0,0,.553.563H48.029a.558.558,0,0,0,.553-.563,7.454,7.454,0,0,0-2.1-5.209A7.106,7.106,0,0,0,43.09,39.252ZM36.2,35.066a4.1,4.1,0,1,1,4.1,4.171A4.139,4.139,0,0,1,36.2,35.066ZM47.358,46.173H33.224a.308.308,0,0,1-.3-.352,6.444,6.444,0,0,1,6.226-5.749h2.287a6.444,6.444,0,0,1,6.226,5.749A.308.308,0,0,1,47.358,46.173Z" transform="translate(0)"/></g></svg>